<svg xmlns="http://www.w3.org/2000/svg" viewBox="0 0 500 500"><path fill="#ebebeb" d="M0 382.4h500v.25H0zm416.78 16.09h33.12v.25h-33.12zm-156.45-3.13h12.89v.25h-12.89zm62.2 1.06h27.14v.25h-27.14zm37.14-7.21h56.11v.25h-56.11zM52.46 400.78h26.53v.25H52.46zm35.43 0h23v.25h-23zm43.11-5.54h60.81v.25H131zm106-57.44H43.91a5.71 5.71 0 01-5.7-5.71V60.66a5.71 5.71 0 015.7-5.66H237a5.71 5.71 0 015.71 5.71v271.38a5.71 5.71 0 01-5.71 5.71zM43.91 55.2a5.46 5.46 0 00-5.45 5.46v271.43a5.46 5.46 0 005.45 5.46H237a5.47 5.47 0 005.46-5.46V60.66A5.47 5.47 0 00237 55.2zm409.4 282.6h-193.1a5.72 5.72 0 01-5.71-5.71V60.66a5.72 5.72 0 015.71-5.66h193.1a5.71 5.71 0 015.69 5.66v271.43a5.71 5.71 0 01-5.69 5.71zM260.21 55.2a5.47 5.47 0 00-5.46 5.46v271.43a5.47 5.47 0 005.46 5.46h193.1a5.47 5.47 0 005.46-5.46V60.66a5.47 5.47 0 00-5.46-5.46z"/><path d="M467.06 194.17a53.79 53.79 0 00-1-33 46.49 46.49 0 00-21-69.85 80.24 80.24 0 00-126.89-53.71 41 41 0 00-70.69 27.93 61.91 61.91 0 00-35.12 100.65 46.59 46.59 0 0027.83 67.36 46.39 46.39 0 0024.11.46 71.94 71.94 0 0096.82 18.46c7.53 17.49 13.71 43.73.4 69.46 48.35-4.74 83.26-51.11 76.14-93.6a54 54 0 0029.4-34.16z" fill="#ebebeb"/><path d="M374.32 312.33a1 1 0 01-.71-.29 1 1 0 01-.25-1c6.81-23.72.6-46.46-5.8-61.36l-3.25-7.55-6.94 4.41A64.92 64.92 0 01270 229.9l-2.78-3.83-4.58 1.14a39.56 39.56 0 01-44.12-57.63l2.33-4.22-3.11-3.68a54.91 54.91 0 0131.12-89.28l5.56-1.12.06-5.66a34 34 0 0158.63-23.18l4.24 4.44 5-3.62a73.23 73.23 0 01115.85 49l.57 4 3.79 1.5a39.47 39.47 0 0117.81 59.33l-2.06 2.95 1.21 3.4A47.07 47.07 0 01434.74 222l-4.87 2.24.89 5.28c3 18.13-2.43 37.93-15 54.33a81.06 81.06 0 01-41.18 28.47.9.9 0 01-.26.01zm-9.55-72.65a1 1 0 01.29 0 1 1 0 01.62.56l3.71 8.62c6.38 14.83 12.55 37.29 6.37 60.93a79.13 79.13 0 0038.43-27.24c12.22-16 17.54-35.2 14.6-52.78l-1-6a1 1 0 01.56-1.08l5.56-2.55a45.05 45.05 0 0023.69-56l-1.38-3.88a1 1 0 01.13-.91l2.35-3.38a37.46 37.46 0 00-16.9-56.32l-4.34-1.72a1 1 0 01-.62-.79l-.65-4.61a71.21 71.21 0 00-112.7-47.66L317.82 49a1 1 0 01-1.31-.11l-4.85-5.07a32.15 32.15 0 00-23.16-9.9 32 32 0 00-32 31.71l-.07 6.48a1 1 0 01-.8 1l-6.35 1.28a52.91 52.91 0 00-30 86l3.55 4.21a1 1 0 01.11 1.13l-2.66 4.82a38 38 0 00-3.26 7.81 37.59 37.59 0 0045.15 46.91l5.24-1.3a1 1 0 011.05.38l3.17 4.37a62.87 62.87 0 0084.71 16.15l7.93-5a1 1 0 01.5-.19z" fill="#fff"/><path d="M304.19 146.19l-26.8-4.19.41-2.68a33.61 33.61 0 013.28-10.87 25 25 0 015.84-7.08q3.61-3 15.72-10.26c4.29-2.52 6.64-5.06 7-7.65a8 8 0 00-1.35-6.39c-1.3-1.67-3.51-2.75-6.61-3.23a11.31 11.31 0 00-8.81 2q-3.8 2.81-6 10.92l-26.84-7.65q3.76-14.87 14.76-22.59t30.74-4.64q15.38 2.39 23.83 10.28 11.48 10.68 9.23 25.14a22.65 22.65 0 01-5.11 11q-4.18 5.06-15.67 11.5-8 4.55-10.4 7.67a18.73 18.73 0 00-3.22 8.72zM275.36 149l28.71 4.47-3.94 25.32-28.71-4.47zm97.23 36.42l-14.88-12 1.21-1.49a23.85 23.85 0 015.85-5.47 17.83 17.83 0 016.07-2.25 103.76 103.76 0 0113.24-.69q5.26 0 7-2.17a5.56 5.56 0 001.44-4.38 7 7 0 00-2.89-4.32 7.94 7.94 0 00-6.09-1.88q-3.32.36-7.53 4.53l-13.67-14.19q7.56-7.74 17-8.55t20.42 8.07q8.54 6.91 10.89 14.73 3.22 10.59-3.27 18.61a16 16 0 01-7 4.94q-4.35 1.59-13.64 1.46c-4.33 0-7.35.28-9.07 1a13.4 13.4 0 00-5.08 4.05zM354 176.91l15.94 12.91-11.39 14.06L342.61 191zm22.75-78.11l-6.44-8.8.88-.65a13.82 13.82 0 014-2.16 10 10 0 013.67-.35 56.9 56.9 0 017.38 1.54c1.94.5 3.33.44 4.18-.18a3.21 3.21 0 001.43-2.2 4 4 0 00-1-2.8 4.57 4.57 0 00-3.08-1.92c-1.25-.18-2.85.28-4.8 1.4l-5.47-9.79a15.14 15.14 0 0110.61-2.24q5.32.93 10.07 7.4 3.69 5.06 3.86 9.69a10.9 10.9 0 01-4.51 9.78 9.09 9.09 0 01-4.53 1.7 23.06 23.06 0 01-7.72-1.17 14.7 14.7 0 00-5.14-.78 7.6 7.6 0 00-3.39 1.53zm-9-7.38l6.9 9.42-8.31 6.08-6.9-9.41z" fill="#fff"/><path d="M128.34 223.57a46.93 46.93 0 01-24-6.65c-10.15-6-17.32-15.42-19.76-25.79a29.06 29.06 0 01-27-27.46 24.6 24.6 0 01-5.58-5.35A25 25 0 0154.2 125a42.76 42.76 0 0151.66-51.36 22.26 22.26 0 0138-4.69 22.5 22.5 0 012.75 4.6 33.16 33.16 0 0137 42.7 25.16 25.16 0 01-12.36 44 38.05 38.05 0 01-13.54 20.4 38.47 38.47 0 01-29.79 7.58c-.1 9.71 2.15 22.88 13 32.3a.8.8 0 01.25.76.77.77 0 01-.55.58 44.1 44.1 0 01-12.28 1.7zM95.73 74a41.22 41.22 0 00-39.9 51.07.77.77 0 01-.23.76 23.44 23.44 0 00-2.41 31.55 23.68 23.68 0 005.66 5.23.79.79 0 01.36.62A27.49 27.49 0 0085.3 189.6a.78.78 0 01.72.62c2.21 10.17 9.2 19.41 19.16 25.35a44.63 44.63 0 0033.63 5.14c-10.73-10-12.73-23.66-12.47-33.46a.8.8 0 01.93-.76 36.84 36.84 0 0042.56-27.16.77.77 0 01.65-.59 23.59 23.59 0 0011.69-41.64.78.78 0 01-.25-.85 31.59 31.59 0 00-35.69-41.07.78.78 0 01-.87-.47 20.69 20.69 0 00-38.31.13.8.8 0 01-.92.47A41.73 41.73 0 0095.73 74z" fill="#e6e6e6"/><path d="M100.59 140l-13.81 3.25-.32-1.38a17.34 17.34 0 01-.55-5.92 13 13 0 011.43-4.57 76.09 76.09 0 015.6-8.07c1.59-2.07 2.23-3.76 1.91-5.09a4.13 4.13 0 00-1.91-2.83 5.15 5.15 0 00-3.84-.27 5.91 5.91 0 00-3.87 2.71c-.86 1.41-1.11 3.56-.76 6.47L70 125.84A19.75 19.75 0 0172.66 112q3.81-5.91 14-8.3 7.92-1.87 13.57.29 7.66 2.91 9.42 10.37a11.74 11.74 0 01-.3 6.36q-1 3.27-5.33 8.66-3 3.78-3.53 5.76a9.83 9.83 0 00.1 4.86zm-13.42 7l14.8-3.48 3.03 13.04L90.25 160zm48.58-36.21l-9.58-2.92.29-1a12.46 12.46 0 011.76-3.81 9.1 9.1 0 012.5-2.28 52.81 52.81 0 016.28-2.89q2.55-1 3-2.43a2.92 2.92 0 00-.16-2.41 3.68 3.68 0 00-2.25-1.53 4.19 4.19 0 00-3.32.29 7.18 7.18 0 00-2.76 3.68l-9.42-4.19a13.94 13.94 0 016.56-7.49q4.42-2.27 11.48-.11a16.11 16.11 0 018.18 5 9.94 9.94 0 012.08 9.66 8.35 8.35 0 01-2.44 3.78 21.52 21.52 0 01-6.33 3.4 13.78 13.78 0 00-4.2 2.26 7 7 0 00-1.67 2.99zm-10.68-.47l10.26 3.12-2.75 9.06-10.27-3.12z" fill="#ebebeb"/><ellipse cx="250" cy="416.24" rx="193.89" ry="11.32" fill="#f5f5f5"/><path d="M157.61 247.44l-.92-.39a18 18 0 001.45-5l1 .11a18.94 18.94 0 01-1.53 5.28zm-.39-11.44a13.33 13.33 0 00-10.43-7.77l.16-1a14.31 14.31 0 0111.18 8.35zM152 257.5l-9.86 4.5-.44-1a13.27 13.27 0 01-1.29-4.33 10 10 0 01.39-3.64 58.94 58.94 0 013-6.86q1.32-2.67.67-4.09a3.16 3.16 0 00-1.85-1.83 4 4 0 00-2.91.37 4.56 4.56 0 00-2.49 2.61q-.65 1.75.4 4.94L127 251.49a15 15 0 010-10.75q2-5 9.22-8.27c3.76-1.72 7.16-2.31 10.19-1.8a10.78 10.78 0 018.57 6.35 9 9 0 01.72 4.8 23 23 0 01-2.7 7.26 14.49 14.49 0 00-1.78 4.83 7.49 7.49 0 00.78 3.59zm-9 7.24l10.54-4.74 4.23 9.29-10.54 4.71zm-15.36 14.99l-5 6.8-.64-.53a10.64 10.64 0 01-2.53-2.47 7.67 7.67 0 01-1.11-2.63 42.47 42.47 0 01-.57-5.81c-.08-1.55-.45-2.56-1.1-3a2.46 2.46 0 00-2-.55 3.08 3.08 0 00-1.84 1.36 3.54 3.54 0 00-.71 2.72 6.09 6.09 0 002.15 3.22l-6 6.31a11.79 11.79 0 01-4.11-7.32q-.55-4.14 3.14-9.15a13.64 13.64 0 016.26-5.09 8.39 8.39 0 018.26 1.06 7 7 0 012.32 3 18.12 18.12 0 01.92 6 11.36 11.36 0 00.62 4 5.76 5.76 0 001.94 2.08zm-3.37 8.36l5.36-7.28 6.42 4.73-5.36 7.28zm109.82 124.55a4.5 4.5 0 01-4-2.43c-4-7.76-9.07-16.87-18.15-26.73a4.45 4.45 0 01-1-4.28c3.37-11.71 8.67-27.72 8.72-27.88a4.49 4.49 0 118.52 2.82c-.05.15-4.62 13.94-7.93 25.15a126.54 126.54 0 0117.82 26.8 4.5 4.5 0 01-4 6.55z" fill="#c21e24"/><path fill="#263238" d="M241.56 416.24h-34.79l18.44-10.46 15.45.6.9 9.86z"/><ellipse cx="230.8" cy="350.34" rx="30.04" ry="24.9" transform="rotate(-17.36 230.761 350.303)" fill="#263238"/><path d="M151.65 334a4.49 4.49 0 01-1.72-8.63 5 5 0 003-3.77 4.48 4.48 0 013.67-4 33.55 33.55 0 003.3-.85c6.08-1.77 13.61-4 37.31 2.66 23.38-13.07 23.65-37.59 23.65-38.65a4.5 4.5 0 014.47-4.5 4.49 4.49 0 014.49 4.45c0 1.31-.14 32.09-30 47.5a4.45 4.45 0 01-3.3.32c-22.6-6.52-29-4.66-34.07-3.17l-1.38.4a13.83 13.83 0 01-7.64 7.89 4.51 4.51 0 01-1.78.35z" fill="#263238"/><path d="M204.08 301.89c-8.51-33.82-31.18-121.06 41.47-126.39 65.18-4.79 83.06 82 87.41 112a351.65 351.65 0 013.54 45.82 33.29 33.29 0 01-26.76 33c-35.51 7.22-69.11 8.24-91.75-.69a14.86 14.86 0 01-9.23-15.21c.87-9.68.89-26.42-4.68-48.53z" fill="#c21e24"/><path d="M333 287.52c-4.1-28.32-20.22-107-76.66-112a16.39 16.39 0 00-16.07 8.51c-2.52 4.88-2.44 10.79 1.33 16.64 12.4 19.33 42.07 86 37.59 122.33-2 16.53-12.41 29.73-3.39 48.31a291.16 291.16 0 0033.94-5 33.29 33.29 0 0026.76-33 351.65 351.65 0 00-3.5-45.79z" opacity=".1"/><path d="M323.24 333.79a.45.45 0 01-.45-.44 348.57 348.57 0 00-3.53-45.76c-10.8-74.66-39.87-112.41-84.1-109.15a.45.45 0 01-.48-.42.46.46 0 01.42-.48c44.75-3.3 74.17 34.72 85 109.92a352.14 352.14 0 013.54 45.88.45.45 0 01-.45.45z" fill="#263238"/><ellipse cx="315.12" cy="352.73" rx="30.04" ry="24.9" transform="rotate(-17.36 315.057 352.682)" fill="#263238"/><path d="M325.3 412.64a4.49 4.49 0 01-4-2.43c-4-7.76-9.07-16.87-18.16-26.73a4.5 4.5 0 01-1-4.28c3.38-11.71 8.67-27.72 8.73-27.88a4.48 4.48 0 118.51 2.82c-.05.15-4.61 13.94-7.92 25.15a126.07 126.07 0 0117.81 26.8 4.5 4.5 0 01-4 6.55z" fill="#c21e24"/><path d="M315.88 275.91a4.49 4.49 0 01-2.1-8.46c.86-.46 20.39-11.13 25.87-36.77-13-5.44-36.42-17.73-41.54-23.91a4.62 4.62 0 01-1-2.08 22.37 22.37 0 011-11l-2.36-4.56a4.49 4.49 0 018-4.12l3.39 6.56A4.46 4.46 0 01307 196a11 11 0 00-1.12 5.91c5.77 5.21 29 17.54 40.43 21.77a4.48 4.48 0 012.87 4.89c-5.07 32.77-30.14 46.27-31.2 46.83a4.48 4.48 0 01-2.1.51z" fill="#263238"/><path d="M301.57 206.15a2.25 2.25 0 01-1.88-3.47c.16-.24 3.86-5.83 9.5-7.34a2.24 2.24 0 111.16 4.33c-3.93 1.06-6.88 5.42-6.9 5.46a2.24 2.24 0 01-1.88 1.02zm31.2 210.09h-34.79l18.44-10.46 15.45.6.9 9.86z" fill="#263238"/><ellipse cx="258.01" cy="260.82" rx="23.92" ry="21.53" transform="rotate(-5.06 257.871 260.717)" fill="#fff"/><ellipse cx="252.18" cy="262.92" rx="6.57" ry="11.96" transform="rotate(-15.9 252.262 262.963)" fill="#263238"/><path d="M230.8 264.86c15.1-1.94 45-10.47 49.93-13.91-3.88-11.36-22-21.08-38.12-15.6-14.61 4.93-11.81 29.51-11.81 29.51zm2.93 7.3c18.75-3.56 43.12-9.54 50.09-13.37-.43 12.22-4 24.61-23.12 28.8-15.64 3.41-26.97-15.43-26.97-15.43z" fill="#263238"/><ellipse cx="208.01" cy="268.36" rx="14.72" ry="18.63" transform="rotate(-33.49 208.023 268.372)" fill="#fff"/><path d="M208.34 268.68c1.13 5.36.15 9.83-2.2 10s-5.17-4.06-6.31-9.42-.15-9.82 2.19-10 5.18 4.06 6.32 9.42z" fill="#263238"/><path d="M189.75 266.63c10.13 1.19 30.25-.14 33.59-2C220.87 255 208.89 244 198 245.4c-9.82 1.26-8.25 21.23-8.25 21.23zm1.88 6.31c12.59.57 29 .25 33.68-1.52-.43 9.61-2.95 18.77-15.81 18.62-10.5-.12-17.87-17.1-17.87-17.1zm72.46-43.64a56.43 56.43 0 01-32.09-9.8 4.48 4.48 0 015.41-7.15 49 49 0 0035.84 7.11 4.48 4.48 0 111.67 8.81 58.41 58.41 0 01-10.83 1.03zm-80.21-7.73a4.5 4.5 0 01-4.22-6c2.37-6.62 6.32-10.91 11.72-12.77 9.78-3.37 20.32 3.18 20.77 3.46a4.49 4.49 0 01-4.78 7.6c-2-1.27-8.37-4.21-13.1-2.57-2.72.95-4.74 3.34-6.17 7.32a4.49 4.49 0 01-4.22 2.96zm35.35 75.68a1.19 1.19 0 01-.37-.06 1.33 1.33 0 01-.92-1.64 8.74 8.74 0 014.56-4.93c5.14-2.65 13-2.1 23.31 1.63a1.34 1.34 0 01.8 1.73 1.33 1.33 0 01-1.72.8c-11.83-4.28-18-3.36-21-1.82a6.25 6.25 0 00-3.32 3.33 1.35 1.35 0 01-1.34.96z" fill="#263238"/><path d="M176.88 292.32a119.22 119.22 0 00-44.78 13.15c7.72-1.46 35.35 32.73 42.45 59.09 13.11-4.85 28.39-8.16 44.68-10.75-9.87-27.17-27.92-57.96-42.35-61.49z" fill="#c21e24"/><path d="M176.88 292.32a119.22 119.22 0 00-44.78 13.15c7.72-1.46 35.35 32.73 42.45 59.09 13.11-4.85 28.39-8.16 44.68-10.75-9.87-27.17-27.92-57.96-42.35-61.49z" fill="#fff" opacity=".6"/><path d="M176.88 292.32c-17.08-1.93-44.81 12.37-44.81 12.37-4.91 3.13-3.58 9-.9 11.49 2.57-3.69 31.23-13.29 42-14.58-5.35-4.96-.37-8.6 3.71-9.28z" fill="#c21e24"/><path d="M176.88 292.32c-17.08-1.93-44.81 12.37-44.81 12.37-4.91 3.13-3.58 9-.9 11.49 2.57-3.69 31.23-13.29 42-14.58-5.35-4.96-.37-8.6 3.71-9.28z" fill="#fff" opacity=".2"/><path d="M151.66 334a4.52 4.52 0 01-3.77-2c-3.25-5-1.22-12.59-.78-14.07a4.49 4.49 0 018.6 2.56c-.73 2.51-.88 5.72-.3 6.6a4.49 4.49 0 01-1.31 6.21 4.38 4.38 0 01-2.44.7z" fill="#263238"/><path d="M136.33 137.94h-15.14v-6.83l15.14-18h7.24v18.39h3.75v6.44h-3.75v5.59h-7.24zm0-6.44v-9.41l-8 9.41zm13.58-3.04q0-8.52 3.07-11.93t9.35-3.41a13.92 13.92 0 015 .75 9.19 9.19 0 013.16 1.93 10.55 10.55 0 011.93 2.51 13.28 13.28 0 011.13 3.07 28.57 28.57 0 01.83 7q0 8.13-2.75 11.91t-9.52 3.71a13.31 13.31 0 01-6.1-1.2 9.93 9.93 0 01-3.82-3.53 13.29 13.29 0 01-1.68-4.52 30.94 30.94 0 01-.6-6.29zm8.24 0q0 5.72 1 7.8a3.17 3.17 0 002.93 2.09 3 3 0 002.19-.89 5.44 5.44 0 001.36-2.8 28.82 28.82 0 00.44-6c0-4-.33-6.64-1-8a3.22 3.22 0 00-3-2 3.08 3.08 0 00-3 2.09q-.91 2.07-.92 7.73zm19.62 0q0-8.52 3.07-11.93t9.35-3.41a13.92 13.92 0 015 .75 9.19 9.19 0 013.16 1.93 10.29 10.29 0 011.93 2.51 13.28 13.28 0 011.13 3.07 28.57 28.57 0 01.84 7q0 8.13-2.76 11.91T190 144a13.31 13.31 0 01-6.1-1.2 9.83 9.83 0 01-3.81-3.53 13.08 13.08 0 01-1.69-4.52 30.94 30.94 0 01-.63-6.29zm8.24 0q0 5.72 1 7.8a3.17 3.17 0 002.93 2.09 3 3 0 002.19-.89 5.52 5.52 0 001.37-2.8 29.55 29.55 0 00.44-6q0-6-1-8a3.24 3.24 0 00-3-2 3.09 3.09 0 00-3 2.09q-.94 2.07-.94 7.73z" fill="#c21e24"/><path d="M220.89 113.63h24.76V120h-15.5v4.76h14.38v6.1h-14.38v5.89h15.95v6.77h-25.21zm30.31 29.9v-29.9h15.4a22.37 22.37 0 016.55.74 6.91 6.91 0 013.65 2.72 8.43 8.43 0 01-2.6 12.06 11.28 11.28 0 01-3.24 1.19 8.81 8.81 0 012.4 1.1 9 9 0 011.48 1.57 11.39 11.39 0 011.3 1.86l4.47 8.66h-10.44l-4.94-9.14a6.84 6.84 0 00-1.67-2.3 3.89 3.89 0 00-2.26-.69h-.82v12.13zm9.28-17.78h3.9a14.16 14.16 0 002.44-.41 2.46 2.46 0 001.5-.94 3 3 0 00-.33-4 5.64 5.64 0 00-3.45-.77h-4.06zm23.21 17.78v-29.9h15.4a22.32 22.32 0 016.55.74 6.91 6.91 0 013.65 2.72 8.45 8.45 0 01-2.59 12.06 11.24 11.24 0 01-3.25 1.19 6.19 6.19 0 013.88 2.67 11.39 11.39 0 011.3 1.86l4.47 8.66h-10.44l-4.94-9.14a6.84 6.84 0 00-1.67-2.3 3.89 3.89 0 00-2.26-.69H293v12.13zm9.31-17.78h3.9a14.16 14.16 0 002.44-.41 2.41 2.41 0 001.5-.94 3 3 0 00-.33-4 5.6 5.6 0 00-3.45-.77H293zm21.18 2.85q0-7.32 4.08-11.4t11.36-4.08q7.47 0 11.51 4t4 11.23a18.32 18.32 0 01-1.73 8.65 12.54 12.54 0 01-5.1 5.23A16.86 16.86 0 01330 144a19.18 19.18 0 01-8.37-1.61 12.6 12.6 0 01-5.38-5.1 16.94 16.94 0 01-2.07-8.69zm9.24 0q0 4.53 1.69 6.51a6.35 6.35 0 009.18 0q1.63-1.94 1.64-7 0-4.21-1.71-6.17a5.83 5.83 0 00-4.62-1.94 5.59 5.59 0 00-4.48 2c-1.12 1.41-1.7 3.6-1.7 6.64zm26.85 14.93v-29.9h15.39a22.32 22.32 0 016.55.74 6.87 6.87 0 013.65 2.72 8.2 8.2 0 011.39 4.84 8.34 8.34 0 01-1.06 4.3 8.25 8.25 0 01-2.92 2.92 11.28 11.28 0 01-3.24 1.19 8.81 8.81 0 012.4 1.1 9.36 9.36 0 011.48 1.57 11.19 11.19 0 011.29 1.86l4.48 8.66h-10.44l-4.94-9.14a7 7 0 00-1.67-2.3 3.92 3.92 0 00-2.27-.69h-.81v12.13zm9.28-17.78h3.89a14.23 14.23 0 002.45-.41 2.46 2.46 0 001.5-.94 2.74 2.74 0 00.58-1.73 2.77 2.77 0 00-.92-2.23 5.6 5.6 0 00-3.45-.77h-4.05zM162.29 97V74.74h8.36a10.3 10.3 0 014.09.68 5.23 5.23 0 012.42 2.08 5.53 5.53 0 01.88 2.94 5 5 0 01-.78 2.69 5.61 5.61 0 01-2.34 2 5.82 5.82 0 013.11 2 5.43 5.43 0 011.08 3.37 6.48 6.48 0 01-.66 2.91 5.63 5.63 0 01-1.63 2.08 6.78 6.78 0 01-2.44 1.1 14.78 14.78 0 01-3.59.37zm3-12.92h4.82a10.44 10.44 0 002.81-.26 3.12 3.12 0 001.69-1.1 3.22 3.22 0 00.57-1.95 3.52 3.52 0 00-.53-2 2.66 2.66 0 00-1.52-1.16 12.63 12.63 0 00-3.39-.31h-4.45zm0 10.29h5.55a13 13 0 002-.1 4.78 4.78 0 001.7-.61 3.25 3.25 0 001.13-1.24 3.92 3.92 0 00.44-1.88 3.65 3.65 0 00-.64-2.16 3.25 3.25 0 00-1.77-1.29 10.85 10.85 0 00-3.26-.38h-5.15zm28.07.63a10.44 10.44 0 01-2.93 1.83 8.56 8.56 0 01-3 .53 5.83 5.83 0 01-4.08-1.3 4.27 4.27 0 01-1.43-3.32 4.5 4.5 0 011.93-3.74 6.45 6.45 0 012-.9 19.45 19.45 0 012.43-.41 25.08 25.08 0 004.88-.94v-.72a3 3 0 00-.77-2.35 4.58 4.58 0 00-3.12-.93 4.87 4.87 0 00-2.85.68 4.18 4.18 0 00-1.42 2.42l-2.67-.36a6.59 6.59 0 011.2-2.78 5.3 5.3 0 012.47-1.62 10.84 10.84 0 013.67-.57A9.81 9.81 0 01193 81a4.44 4.44 0 011.9 1.23 4.32 4.32 0 01.85 1.86 15.39 15.39 0 01.14 2.52v3.65a38.26 38.26 0 00.17 4.82 6.17 6.17 0 00.69 1.94h-2.85a5.81 5.81 0 01-.54-2.02zm-.23-6.11a20 20 0 01-4.47 1 10.61 10.61 0 00-2.39.54 2.5 2.5 0 00-1.08.89 2.43 2.43 0 00.45 3.13 3.62 3.62 0 002.43.73 5.66 5.66 0 002.81-.7 4.28 4.28 0 001.81-1.89 6.69 6.69 0 00.44-2.74zM210.61 97v-2a5 5 0 01-4.52 2.4 6.32 6.32 0 01-3.54-1.07 6.93 6.93 0 01-2.51-3 10.14 10.14 0 01-.89-4.38 11.63 11.63 0 01.8-4.39 6.35 6.35 0 012.42-3 6.46 6.46 0 013.6-1 5.37 5.37 0 012.6.61 5.49 5.49 0 011.86 1.61v-8h2.72V97zM202 89a7 7 0 001.31 4.63 3.92 3.92 0 003.08 1.54 3.87 3.87 0 003.05-1.47 6.74 6.74 0 001.25-4.47 7.63 7.63 0 00-1.27-4.87 3.94 3.94 0 00-3.15-1.55 3.82 3.82 0 00-3 1.49A7.39 7.39 0 00202 89zm24.49 8V74.74h9.88a13.13 13.13 0 014.53.6 5 5 0 012.48 2.12 6.3 6.3 0 01.93 3.36 5.6 5.6 0 01-1.54 4 7.75 7.75 0 01-4.77 2.06 7.75 7.75 0 011.81 1.12 15.2 15.2 0 012.45 3l3.87 6h-3.71l-2.95-4.63c-.86-1.34-1.57-2.36-2.12-3.07a6.67 6.67 0 00-1.5-1.49 4.48 4.48 0 00-1.35-.6 9 9 0 00-1.64-.1h-3.42V97zm2.95-12.45h6.34a9.48 9.48 0 003.16-.41 3.43 3.43 0 001.74-1.34 3.65 3.65 0 00.59-2 3.32 3.32 0 00-1.15-2.6 5.36 5.36 0 00-3.62-1h-7.06zm30.19 7.28l2.83.34A6.88 6.88 0 01260 96a8.4 8.4 0 01-10.24-.81 8.56 8.56 0 01-2.07-6.12 8.9 8.9 0 012.1-6.32 7.08 7.08 0 015.44-2.25 6.91 6.91 0 015.29 2.2 8.8 8.8 0 012.05 6.2v.73h-12a6.25 6.25 0 001.43 4.09 4.46 4.46 0 003.37 1.42 4.16 4.16 0 002.57-.79 5.31 5.31 0 001.69-2.52zm-9-4.43h9a5.49 5.49 0 00-1-3.05 4.18 4.18 0 00-3.39-1.58 4.34 4.34 0 00-3.17 1.23 5 5 0 00-1.42 3.4zm25.55 15.81v-7.9a5 5 0 01-1.78 1.49 5.32 5.32 0 01-2.44.59 6.45 6.45 0 01-4.95-2.3 9 9 0 01-2.08-6.29 10.8 10.8 0 01.85-4.36 6.31 6.31 0 012.45-2.93 6.53 6.53 0 013.51-1 5.42 5.42 0 014.72 2.49v-2.12h2.46v22.33zm-8.43-14.3a7.15 7.15 0 001.3 4.67 4 4 0 003.14 1.56 3.84 3.84 0 003-1.48 6.78 6.78 0 001.27-4.51 7.58 7.58 0 00-1.33-4.85 4 4 0 00-3.13-1.63 3.76 3.76 0 00-3 1.52 7.36 7.36 0 00-1.25 4.72zM293.78 97v-2.35a5.89 5.89 0 01-5.12 2.74 6.48 6.48 0 01-2.67-.55 4.37 4.37 0 01-1.83-1.37 5 5 0 01-.85-2 14 14 0 01-.17-2.56v-10h2.74v9a16 16 0 00.17 2.89 2.83 2.83 0 001.09 1.7 3.41 3.41 0 002.07.61 4.51 4.51 0 002.31-.63 3.49 3.49 0 001.53-1.72 8.54 8.54 0 00.45-3.15v-8.73h2.73V97zm17.79-5.17l2.83.34a6.93 6.93 0 01-2.48 3.83 8.4 8.4 0 01-10.24-.81 8.56 8.56 0 01-2.07-6.12 8.94 8.94 0 012.09-6.32 7.12 7.12 0 015.45-2.25 6.91 6.91 0 015.29 2.2 8.8 8.8 0 012.05 6.2v.73h-12A6.2 6.2 0 00304 93.7a4.44 4.44 0 003.37 1.42 4.16 4.16 0 002.57-.79 5.31 5.31 0 001.63-2.5zm-9-4.43h9a5.49 5.49 0 00-1-3.05 4.2 4.2 0 00-3.39-1.58A4.34 4.34 0 00304 84a5 5 0 00-1.41 3.4zm14.17 4.81l2.7-.43a3.8 3.8 0 001.27 2.49 4.43 4.43 0 002.91.87 4.29 4.29 0 002.8-.77 2.28 2.28 0 00.91-1.8 1.68 1.68 0 00-.8-1.46 12.38 12.38 0 00-2.8-.93 24.64 24.64 0 01-4.17-1.31 4 4 0 01-2.37-3.7 4.15 4.15 0 01.5-2 4.47 4.47 0 011.31-1.53 5.89 5.89 0 011.74-.8 8.59 8.59 0 012.37-.32 9.41 9.41 0 013.33.54 4.49 4.49 0 012.12 1.49 5.79 5.79 0 011 2.5l-2.68.36a2.91 2.91 0 00-1.06-2 3.88 3.88 0 00-2.47-.69 4.46 4.46 0 00-2.69.62 1.82 1.82 0 00-.8 1.46 1.55 1.55 0 00.33 1 2.47 2.47 0 001.05.73c.27.1 1.08.33 2.42.69a34.72 34.72 0 014.05 1.27 4.16 4.16 0 011.8 1.44 4 4 0 01.65 2.34 4.63 4.63 0 01-.79 2.58 5.22 5.22 0 01-2.37 1.88 8.38 8.38 0 01-3.4.66 7.6 7.6 0 01-4.8-1.31 6 6 0 01-2.06-3.87zm22.63 2.37l.4 2.41a9.75 9.75 0 01-2.07.25 4.57 4.57 0 01-2.31-.48 2.64 2.64 0 01-1.16-1.23 10 10 0 01-.33-3.23V83h-2v-2.12h2v-4l2.72-1.64v5.64h2.75V83h-2.75v9.44a5 5 0 00.14 1.5 1.23 1.23 0 00.47.54 1.86 1.86 0 00.94.19 9 9 0 001.2-.09z" fill="#263238"/></svg>