<svg xmlns="http://www.w3.org/2000/svg" viewBox="0 0 672.59 336.13"><defs><style>.cls-1{fill:#fff}</style></defs><g id="Capa_2" data-name="Capa 2"><g id="Layer_1" data-name="Layer 1"><path class="cls-1" d="M1.45 285.16v-83.79h16l35.71 59.13h-8.5l35-59.13h16.11v83.79H77.7l-.24-55.9h3.59L52.8 276.18h-8.62l-28.61-46.92h3.95v55.9zm103.3 0L142 201.37h19.15l37.59 83.79h-20.37l-30.77-74h7.78l-30.76 74zm18.79-18l4.91-14.72h43.33l5 14.72zm122.82 19.43a50.27 50.27 0 01-18-3.17 41.9 41.9 0 01-23.94-22.8 45.89 45.89 0 010-34.72 41.65 41.65 0 019.58-13.76 43 43 0 0114.48-9 53.23 53.23 0 0137.77.6 38.33 38.33 0 0114.84 11.07l-12.59 11.45a28.52 28.52 0 00-9.52-7.42 26.79 26.79 0 00-11.55-2.51 28.71 28.71 0 00-10.77 2 25.35 25.35 0 00-8.5 5.57 25.08 25.08 0 00-5.56 8.5 30.94 30.94 0 000 21.78 24.87 24.87 0 0014.06 14.07 28.51 28.51 0 0010.77 2 26.13 26.13 0 0011.57-2.63 29.11 29.11 0 009.52-7.48l12.57 11.49a38.77 38.77 0 01-14.84 11.13 49.49 49.49 0 01-19.89 3.83zm83.55 0a50.29 50.29 0 01-18.31-3.23 44.2 44.2 0 01-14.61-9.1 40.86 40.86 0 01-9.63-13.76 45.31 45.31 0 010-34.54 41.22 41.22 0 019.63-13.7 44.51 44.51 0 0114.55-9.1 50.06 50.06 0 0118.25-3.23A50.91 50.91 0 01348 203.1a43.71 43.71 0 0114.55 9 41.06 41.06 0 019.63 13.76 45.62 45.62 0 010 34.66 40.81 40.81 0 01-9.63 13.82 43.55 43.55 0 01-14.55 9 50.56 50.56 0 01-18.09 3.25zm-.12-16.4a26.51 26.51 0 0010.35-2 25 25 0 008.32-5.63 25.8 25.8 0 005.57-8.5 30.75 30.75 0 000-21.66 25.91 25.91 0 00-5.57-8.5 25.16 25.16 0 00-8.32-5.63 26.69 26.69 0 00-10.35-2 27.14 27.14 0 00-10.41 2 24.36 24.36 0 00-8.32 5.63 26.4 26.4 0 00-5.51 8.5 30.61 30.61 0 000 21.66 26.29 26.29 0 005.51 8.5 24.22 24.22 0 008.32 5.63 27 27 0 0010.41 2zm60.45 14.97v-83.79h16l49.44 60.32h-7.79v-60.32h19.16v83.79h-16l-49.44-60.33h7.78v60.33zm96.76 0v-83.79h38q13.65 0 24.06 5.2a39.53 39.53 0 0116.28 14.61q5.86 9.39 5.87 22.08t-5.87 22.09A39.58 39.58 0 01549.08 280q-10.41 5.21-24.06 5.21zm19.51-15.8h17.59a31.35 31.35 0 0014.55-3.18 22.81 22.81 0 009.57-9.09 29.77 29.77 0 000-27.71 22.94 22.94 0 00-9.57-9 31.47 31.47 0 00-14.55-3.17h-17.63zm120.02 17.23a50.38 50.38 0 01-18.32-3.23 44.26 44.26 0 01-14.6-9.1A40.86 40.86 0 01584 260.5a45.31 45.31 0 010-34.5 41.22 41.22 0 019.63-13.7 44.57 44.57 0 0114.54-9.1 50.12 50.12 0 0118.26-3.23 50.91 50.91 0 0118.25 3.17 43.71 43.71 0 0114.55 9 41.06 41.06 0 019.63 13.76 45.74 45.74 0 010 34.66 40.81 40.81 0 01-9.63 13.82 43.55 43.55 0 01-14.55 9 50.56 50.56 0 01-18.15 3.21zm-.12-16.4a26.51 26.51 0 0010.35-2 25.11 25.11 0 008.32-5.63 25.8 25.8 0 005.57-8.5 30.75 30.75 0 000-21.66 25.91 25.91 0 00-5.57-8.5 25.26 25.26 0 00-8.32-5.63 26.69 26.69 0 00-10.35-2 27.23 27.23 0 00-10.42 2 24.42 24.42 0 00-8.31 5.63 26.4 26.4 0 00-5.51 8.5 30.61 30.61 0 000 21.66 26.29 26.29 0 005.51 8.5 24.28 24.28 0 008.31 5.63 27 27 0 0010.42 2zm-337.86 65.94a11.57 11.57 0 01-3.94-.68 7.63 7.63 0 01-2.92-1.72l.77-1.51a7.64 7.64 0 002.62 1.6 9.45 9.45 0 003.47.64 7.76 7.76 0 002.83-.43 3.43 3.43 0 001.61-1.17 2.85 2.85 0 00.52-1.64 2.45 2.45 0 00-.62-1.74 4.31 4.31 0 00-1.62-1 18.3 18.3 0 00-2.22-.67c-.81-.2-1.62-.4-2.43-.62a10 10 0 01-2.22-.89 4.46 4.46 0 01-1.64-1.46 4.19 4.19 0 01-.62-2.39 4.54 4.54 0 01.73-2.51 5 5 0 012.22-1.85 9.14 9.14 0 013.85-.7 11.25 11.25 0 013.09.44 8.91 8.91 0 012.64 1.2l-.66 1.55a8.72 8.72 0 00-2.52-1.16 9.91 9.91 0 00-2.57-.37 7.16 7.16 0 00-2.74.45 3.44 3.44 0 00-1.6 1.2 3 3 0 00-.51 1.7 2.41 2.41 0 00.62 1.74 4.11 4.11 0 001.63 1 19.09 19.09 0 002.23.66c.81.19 1.61.4 2.41.63a11 11 0 012.22.89 4.61 4.61 0 011.63 1.43 4.08 4.08 0 01.62 2.35 4.51 4.51 0 01-.74 2.49 5.12 5.12 0 01-2.25 1.85 9.43 9.43 0 01-3.89.69zm18.56 0a7.53 7.53 0 01-5.56-2c-1.36-1.36-2-3.36-2-6v-10.62h2V328a6.8 6.8 0 001.48 4.83 6.37 6.37 0 008.35 0 6.8 6.8 0 001.48-4.83v-10.49h1.9v10.57c0 2.66-.67 4.66-2 6a7.47 7.47 0 01-5.65 2.05zm13.45-.13v-18.49h1.61l12.73 16h-.84v-16H336V336h-1.6l-12.71-16h.84v16zm26.52.13a11.62 11.62 0 01-3.94-.68 7.59 7.59 0 01-2.91-1.72l.76-1.51a7.69 7.69 0 002.63 1.6 9.4 9.4 0 003.46.64 7.82 7.82 0 002.84-.43 3.48 3.48 0 001.61-1.17 2.84 2.84 0 00.51-1.64 2.41 2.41 0 00-.62-1.74 4.16 4.16 0 00-1.62-1 18.68 18.68 0 00-2.21-.67c-.81-.2-1.62-.4-2.43-.62a10.28 10.28 0 01-2.23-.89 4.42 4.42 0 01-1.63-1.46 4.12 4.12 0 01-.62-2.39 4.61 4.61 0 01.72-2.51 5.12 5.12 0 012.23-1.85 9.11 9.11 0 013.85-.7 11.13 11.13 0 013.08.44 8.91 8.91 0 012.64 1.2l-.66 1.55a8.72 8.72 0 00-2.52-1.16 9.79 9.79 0 00-2.57-.37 7.2 7.2 0 00-2.74.45 3.46 3.46 0 00-1.59 1.2 2.9 2.9 0 00-.52 1.7 2.45 2.45 0 00.62 1.74 4.15 4.15 0 001.64 1 18.9 18.9 0 002.22.66c.81.19 1.62.4 2.42.63a10.63 10.63 0 012.21.89 4.65 4.65 0 011.64 1.43 4.08 4.08 0 01.62 2.35 4.51 4.51 0 01-.74 2.49 5.15 5.15 0 01-2.26 1.85 9.4 9.4 0 01-3.89.69zm11.13-.13v-18.49h12.66v1.69h-10.71v15.08h11.1V336zm1.74-8.55v-1.66h9.76v1.66zm19.49 8.55v-16.8H373v-1.69h14.93v1.69h-6.49V336z"/><circle class="cls-1" cx="268.3" cy="326.67" r="3.34"/><circle class="cls-1" cx="398.38" cy="326.67" r="3.34"/><path d="M380.48 148.55c20.83-4 49.92-10.39 70.63-13.31v.1c-20.19 4.68-50.12 9.71-70.65 13.21zm-11.01-19.27c17.42-13.26 41.38-32.5 59.16-44.74l.07.08c-16.54 13.58-41.87 32-59.23 44.66zm-17.42-12.2c9.91-20.1 23.09-48.66 33.77-68h.09c-9 20-23.75 48.4-33.86 68zM333 112.31c.49-22.39.38-53.81 1.89-75.84h.1c.31 21.88-1.09 53.86-2 75.84zm-19.43 5.13c-9.45-20.68-23.43-49.37-31.8-70.17h.09c9.95 19.87 22.82 49.72 31.71 70.21zm-16.49 11.92c-17.5-14.22-42.56-33.55-59.15-48.36l.06-.08c17.6 13.28 42.17 34.15 59.09 48.44zm-10.73 19.15c-21.66-4.36-52.21-9.69-73.34-15v-.1c21.31 3.48 52.14 10.39 73.32 15.09zm386.24 9.02S455.07 153 452.62 153a4.43 4.43 0 000 8.86c2.43.01 219.97-4.33 219.97-4.33zm-260.05-.12s19.64-4.47 22.09-4.48a4.43 4.43 0 110 8.86c-2.43.01-22.09-4.38-22.09-4.38zm-59.37.12S400 153 402.47 153a4.43 4.43 0 110 8.86c-2.47.01-49.3-4.33-49.3-4.33zM481.5 82.59s-43.14 18.85-45.28 20a4.43 4.43 0 104.3 7.75c2.14-1.15 40.98-27.75 40.98-27.75zm-76.93 40.59s15.76-12.55 18-13.62a4.43 4.43 0 013.87 8c-2.25 1.04-21.87 5.62-21.87 5.62zm-53.43 25.87s40.25-24.41 42.45-25.47a4.43 4.43 0 113.86 8c-2.2 1.04-46.31 17.47-46.31 17.47zm84.69-119.48s-33 33.56-34.55 35.46a4.43 4.43 0 106.87 5.59c1.55-1.9 27.68-41.05 27.68-41.05zM382.55 95.8s8.75-18.15 10.27-20.07a4.43 4.43 0 016.94 5.51c-1.52 1.92-17.21 14.56-17.21 14.56zm-36.92 46.49s25.67-39.46 27.19-41.37a4.43 4.43 0 016.95 5.51c-1.53 1.91-34.14 35.86-34.14 35.86zM372.3 0s-17.38 43.75-18.06 46.1a4.43 4.43 0 008.51 2.48C363.43 46.23 372.3 0 372.3 0zm-21.48 80.68s0-20.15.55-22.53a4.43 4.43 0 118.64 2c-.53 2.34-9.19 20.53-9.19 20.53zm-13.09 57.91s6-46.69 6.55-49.08a4.43 4.43 0 018.65 2c-.54 2.34-15.2 47.08-15.2 47.08zM293.45.54s17.38 43.75 18.06 46.1a4.43 4.43 0 11-8.51 2.48c-.68-2.35-9.55-48.58-9.55-48.58zm22.23 80.29S307 62.67 306.4 60.29a4.43 4.43 0 118.63-2c.55 2.39.65 22.54.65 22.54zM329 138.68S314.17 94 313.62 91.62a4.43 4.43 0 018.64-2c.55 2.38 6.74 49.06 6.74 49.06zM230.72 31.15s33 33.56 34.56 35.46a4.43 4.43 0 01-6.88 5.59c-1.54-1.9-27.68-41.05-27.68-41.05zm53.36 65.06s-15.75-12.57-17.28-14.48a4.43 4.43 0 116.92-5.54c1.53 1.91 10.36 20.02 10.36 20.02zm37.11 46.34s-32.75-33.81-34.28-35.72a4.43 4.43 0 116.91-5.54c1.53 1.91 27.37 41.26 27.37 41.26zM186.7 83.3s43.14 18.84 45.28 20a4.43 4.43 0 11-4.3 7.75c-2.14-1.16-40.98-27.75-40.98-27.75zm75.58 40.48s-19.64-4.5-21.84-5.55a4.43 4.43 0 013.82-8c2.21 1.06 18.02 13.55 18.02 13.55zm53.54 25.64s-44.17-16.25-46.38-17.3a4.43 4.43 0 013.83-8c2.2 1.06 42.55 25.3 42.55 25.3zm-100.01 4.27a4.43 4.43 0 010 8.86c-2.43 0-215.81-4.33-215.81-4.33m254.61-.15s-19.65 4.47-22.09 4.48a4.43 4.43 0 110-8.86c2.42-.01 22.09 4.38 22.09 4.38zM314 158s-46.85 4.52-49.3 4.53a4.43 4.43 0 110-8.86c2.4-.06 49.3 4.33 49.3 4.33z" fill="#ffb900"/></g></g></svg>