<svg xmlns="http://www.w3.org/2000/svg" viewBox="0 0 672.59 336.13"><defs><style>.cls-1{fill:#fff;}.cls-2{fill:#ffb900;}</style></defs><g id="Capa_2" data-name="Capa 2"><g id="Layer_1" data-name="Layer 1"><path class="cls-1" d="M1.45,285.16V201.37h16L53.16,260.5h-8.5l35-59.13H95.77v83.79H77.7l-.24-55.9h3.59L52.8,276.18H44.18L15.57,229.26h3.95v55.9Z"/><path class="cls-1" d="M104.75,285.16,142,201.37h19.15l37.59,83.79H178.37l-30.77-74h7.78l-30.76,74Zm18.79-18,4.91-14.72h43.33l5,14.72Z"/><path class="cls-1" d="M246.36,286.59a50.27,50.27,0,0,1-18-3.17,41.9,41.9,0,0,1-23.94-22.8,45.89,45.89,0,0,1,0-34.72A41.65,41.65,0,0,1,214,212.14a43,43,0,0,1,14.48-9,53.23,53.23,0,0,1,37.77.6,38.33,38.33,0,0,1,14.84,11.07L268.5,226.26a28.52,28.52,0,0,0-9.52-7.42,26.79,26.79,0,0,0-11.55-2.51,28.71,28.71,0,0,0-10.77,2,25.35,25.35,0,0,0-8.5,5.57,25.08,25.08,0,0,0-5.56,8.5,30.94,30.94,0,0,0,0,21.78,24.87,24.87,0,0,0,14.06,14.07,28.51,28.51,0,0,0,10.77,2A26.13,26.13,0,0,0,259,267.62a29.11,29.11,0,0,0,9.52-7.48l12.57,11.49a38.77,38.77,0,0,1-14.84,11.13A49.49,49.49,0,0,1,246.36,286.59Z"/><path class="cls-1" d="M329.91,286.59a50.29,50.29,0,0,1-18.31-3.23,44.2,44.2,0,0,1-14.61-9.1,40.86,40.86,0,0,1-9.63-13.76,45.31,45.31,0,0,1,0-34.54,41.22,41.22,0,0,1,9.63-13.7,44.51,44.51,0,0,1,14.55-9.1,50.06,50.06,0,0,1,18.25-3.23A50.91,50.91,0,0,1,348,203.1a43.71,43.71,0,0,1,14.55,9,41.06,41.06,0,0,1,9.63,13.76,45.62,45.62,0,0,1,0,34.66,40.81,40.81,0,0,1-9.63,13.82,43.55,43.55,0,0,1-14.55,9A50.56,50.56,0,0,1,329.91,286.59Zm-.12-16.4a26.51,26.51,0,0,0,10.35-2,25,25,0,0,0,8.32-5.63,25.8,25.8,0,0,0,5.57-8.5,30.75,30.75,0,0,0,0-21.66,25.91,25.91,0,0,0-5.57-8.5,25.16,25.16,0,0,0-8.32-5.63,26.69,26.69,0,0,0-10.35-2,27.14,27.14,0,0,0-10.41,2,24.36,24.36,0,0,0-8.32,5.63,26.4,26.4,0,0,0-5.51,8.5,30.61,30.61,0,0,0,0,21.66,26.29,26.29,0,0,0,5.51,8.5,24.22,24.22,0,0,0,8.32,5.63A27,27,0,0,0,329.79,270.19Z"/><path class="cls-1" d="M390.24,285.16V201.37h16l49.44,60.32h-7.79V201.37h19.16v83.79h-16l-49.44-60.33h7.78v60.33Z"/><path class="cls-1" d="M487,285.16V201.37H525q13.65,0,24.06,5.2a39.53,39.53,0,0,1,16.28,14.61q5.86,9.39,5.87,22.08t-5.87,22.09A39.58,39.58,0,0,1,549.08,280q-10.41,5.21-24.06,5.21Zm19.51-15.8h17.59a31.35,31.35,0,0,0,14.55-3.18,22.81,22.81,0,0,0,9.57-9.09,29.77,29.77,0,0,0,0-27.71,22.94,22.94,0,0,0-9.57-9,31.47,31.47,0,0,0-14.55-3.17H506.47Z"/><path class="cls-1" d="M626.53,286.59a50.38,50.38,0,0,1-18.32-3.23,44.26,44.26,0,0,1-14.6-9.1A40.86,40.86,0,0,1,584,260.5,45.31,45.31,0,0,1,584,226a41.22,41.22,0,0,1,9.63-13.7,44.57,44.57,0,0,1,14.54-9.1,50.12,50.12,0,0,1,18.26-3.23,50.91,50.91,0,0,1,18.25,3.17,43.71,43.71,0,0,1,14.55,9,41.06,41.06,0,0,1,9.63,13.76,45.74,45.74,0,0,1,0,34.66,40.81,40.81,0,0,1-9.63,13.82,43.55,43.55,0,0,1-14.55,9A50.56,50.56,0,0,1,626.53,286.59Zm-.12-16.4a26.51,26.51,0,0,0,10.35-2,25.11,25.11,0,0,0,8.32-5.63,25.8,25.8,0,0,0,5.57-8.5,30.75,30.75,0,0,0,0-21.66,25.91,25.91,0,0,0-5.57-8.5,25.26,25.26,0,0,0-8.32-5.63,26.69,26.69,0,0,0-10.35-2,27.23,27.23,0,0,0-10.42,2,24.42,24.42,0,0,0-8.31,5.63,26.4,26.4,0,0,0-5.51,8.5,30.61,30.61,0,0,0,0,21.66,26.29,26.29,0,0,0,5.51,8.5,24.28,24.28,0,0,0,8.31,5.63A27,27,0,0,0,626.41,270.19Z"/><path class="cls-1" d="M288.55,336.13a11.57,11.57,0,0,1-3.94-.68,7.63,7.63,0,0,1-2.92-1.72l.77-1.51a7.64,7.64,0,0,0,2.62,1.6,9.45,9.45,0,0,0,3.47.64,7.76,7.76,0,0,0,2.83-.43,3.43,3.43,0,0,0,1.61-1.17,2.85,2.85,0,0,0,.52-1.64,2.45,2.45,0,0,0-.62-1.74,4.31,4.31,0,0,0-1.62-1,18.3,18.3,0,0,0-2.22-.67c-.81-.2-1.62-.4-2.43-.62a10,10,0,0,1-2.22-.89,4.46,4.46,0,0,1-1.64-1.46,4.19,4.19,0,0,1-.62-2.39,4.54,4.54,0,0,1,.73-2.51,5,5,0,0,1,2.22-1.85,9.14,9.14,0,0,1,3.85-.7,11.25,11.25,0,0,1,3.09.44,8.91,8.91,0,0,1,2.64,1.2l-.66,1.55a8.72,8.72,0,0,0-2.52-1.16,9.91,9.91,0,0,0-2.57-.37,7.16,7.16,0,0,0-2.74.45,3.44,3.44,0,0,0-1.6,1.2,3,3,0,0,0-.51,1.7,2.41,2.41,0,0,0,.62,1.74,4.11,4.11,0,0,0,1.63,1,19.09,19.09,0,0,0,2.23.66c.81.19,1.61.4,2.41.63a11,11,0,0,1,2.22.89,4.61,4.61,0,0,1,1.63,1.43,4.08,4.08,0,0,1,.62,2.35,4.51,4.51,0,0,1-.74,2.49,5.12,5.12,0,0,1-2.25,1.85A9.43,9.43,0,0,1,288.55,336.13Z"/><path class="cls-1" d="M307.11,336.13a7.53,7.53,0,0,1-5.56-2c-1.36-1.36-2-3.36-2-6V317.51h2V328a6.8,6.8,0,0,0,1.48,4.83,6.37,6.37,0,0,0,8.35,0,6.8,6.8,0,0,0,1.48-4.83V317.51h1.9v10.57c0,2.66-.67,4.66-2,6A7.47,7.47,0,0,1,307.11,336.13Z"/><path class="cls-1" d="M320.56,336V317.51h1.61l12.73,16h-.84v-16H336V336h-1.6l-12.71-16h.84v16Z"/><path class="cls-1" d="M347.08,336.13a11.62,11.62,0,0,1-3.94-.68,7.59,7.59,0,0,1-2.91-1.72l.76-1.51a7.69,7.69,0,0,0,2.63,1.6,9.4,9.4,0,0,0,3.46.64,7.82,7.82,0,0,0,2.84-.43,3.48,3.48,0,0,0,1.61-1.17,2.84,2.84,0,0,0,.51-1.64,2.41,2.41,0,0,0-.62-1.74,4.16,4.16,0,0,0-1.62-1,18.68,18.68,0,0,0-2.21-.67c-.81-.2-1.62-.4-2.43-.62a10.28,10.28,0,0,1-2.23-.89,4.42,4.42,0,0,1-1.63-1.46,4.12,4.12,0,0,1-.62-2.39,4.61,4.61,0,0,1,.72-2.51,5.12,5.12,0,0,1,2.23-1.85,9.11,9.11,0,0,1,3.85-.7,11.13,11.13,0,0,1,3.08.44,8.91,8.91,0,0,1,2.64,1.2l-.66,1.55a8.72,8.72,0,0,0-2.52-1.16,9.79,9.79,0,0,0-2.57-.37,7.2,7.2,0,0,0-2.74.45,3.46,3.46,0,0,0-1.59,1.2,2.9,2.9,0,0,0-.52,1.7,2.45,2.45,0,0,0,.62,1.74,4.15,4.15,0,0,0,1.64,1,18.9,18.9,0,0,0,2.22.66c.81.19,1.62.4,2.42.63a10.63,10.63,0,0,1,2.21.89,4.65,4.65,0,0,1,1.64,1.43,4.08,4.08,0,0,1,.62,2.35,4.51,4.51,0,0,1-.74,2.49,5.15,5.15,0,0,1-2.26,1.85A9.4,9.4,0,0,1,347.08,336.13Z"/><path class="cls-1" d="M358.21,336V317.51h12.66v1.69H360.16v15.08h11.1V336Zm1.74-8.55v-1.66h9.76v1.66Z"/><path class="cls-1" d="M379.44,336V319.2H373v-1.69h14.93v1.69h-6.49V336Z"/><circle class="cls-1" cx="268.3" cy="326.67" r="3.34"/><circle class="cls-1" cx="398.38" cy="326.67" r="3.34"/><path class="cls-2" d="M380.48,148.55c20.83-4,49.92-10.39,70.63-13.31l0,.1c-20.19,4.68-50.12,9.71-70.65,13.21Z"/><path class="cls-2" d="M369.47,129.28c17.42-13.26,41.38-32.5,59.16-44.74l.07.08c-16.54,13.58-41.87,32-59.23,44.66Z"/><path class="cls-2" d="M352.05,117.08c9.91-20.1,23.09-48.66,33.77-68l.09,0c-9,20-23.75,48.4-33.86,68Z"/><path class="cls-2" d="M333,112.31c.49-22.39.38-53.81,1.89-75.84h.1c.31,21.88-1.09,53.86-2,75.84Z"/><path class="cls-2" d="M313.57,117.44c-9.45-20.68-23.43-49.37-31.8-70.17l.09,0c9.95,19.87,22.82,49.72,31.71,70.21Z"/><path class="cls-2" d="M297.08,129.36c-17.5-14.22-42.56-33.55-59.15-48.36l.06-.08c17.6,13.28,42.17,34.15,59.09,48.44Z"/><path class="cls-2" d="M286.35,148.51c-21.66-4.36-52.21-9.69-73.34-15l0-.1c21.31,3.48,52.14,10.39,73.32,15.09Z"/><path class="cls-2" d="M672.59,157.53S455.07,153,452.62,153a4.43,4.43,0,0,0,0,8.86C455.05,161.87,672.59,157.53,672.59,157.53Z"/><path class="cls-2" d="M412.54,157.41s19.64-4.47,22.09-4.48a4.43,4.43,0,1,1,0,8.86C432.2,161.8,412.54,157.41,412.54,157.41Z"/><path class="cls-2" d="M353.17,157.53S400,153,402.47,153a4.43,4.43,0,1,1,0,8.86C400,161.87,353.17,157.53,353.17,157.53Z"/><path class="cls-2" d="M481.5,82.59s-43.14,18.85-45.28,20a4.43,4.43,0,1,0,4.3,7.75C442.66,109.19,481.5,82.59,481.5,82.59Z"/><path class="cls-2" d="M404.57,123.18s15.76-12.55,18-13.62a4.43,4.43,0,0,1,3.87,8C424.19,118.6,404.57,123.18,404.57,123.18Z"/><path class="cls-2" d="M351.14,149.05s40.25-24.41,42.45-25.47a4.43,4.43,0,1,1,3.86,8C395.25,132.62,351.14,149.05,351.14,149.05Z"/><path class="cls-2" d="M435.83,29.57s-33,33.56-34.55,35.46a4.43,4.43,0,1,0,6.87,5.59C409.7,68.72,435.83,29.57,435.83,29.57Z"/><path class="cls-2" d="M382.55,95.8s8.75-18.15,10.27-20.07a4.43,4.43,0,0,1,6.94,5.51C398.24,83.16,382.55,95.8,382.55,95.8Z"/><path class="cls-2" d="M345.63,142.29s25.67-39.46,27.19-41.37a4.43,4.43,0,0,1,6.95,5.51C378.24,108.34,345.63,142.29,345.63,142.29Z"/><path class="cls-2" d="M372.3,0s-17.38,43.75-18.06,46.1a4.43,4.43,0,0,0,8.51,2.48C363.43,46.23,372.3,0,372.3,0Z"/><path class="cls-2" d="M350.82,80.68s0-20.15.55-22.53a4.43,4.43,0,1,1,8.64,2C359.48,62.49,350.82,80.68,350.82,80.68Z"/><path class="cls-2" d="M337.73,138.59s6-46.69,6.55-49.08a4.43,4.43,0,0,1,8.65,2C352.39,93.85,337.73,138.59,337.73,138.59Z"/><path class="cls-2" d="M293.45.54s17.38,43.75,18.06,46.1A4.43,4.43,0,1,1,303,49.12C302.32,46.77,293.45.54,293.45.54Z"/><path class="cls-2" d="M315.68,80.83S307,62.67,306.4,60.29a4.43,4.43,0,1,1,8.63-2C315.58,60.68,315.68,80.83,315.68,80.83Z"/><path class="cls-2" d="M329,138.68S314.17,94,313.62,91.62a4.43,4.43,0,0,1,8.64-2C322.81,92,329,138.68,329,138.68Z"/><path class="cls-2" d="M230.72,31.15s33,33.56,34.56,35.46a4.43,4.43,0,0,1-6.88,5.59C256.86,70.3,230.72,31.15,230.72,31.15Z"/><path class="cls-2" d="M284.08,96.21S268.33,83.64,266.8,81.73a4.43,4.43,0,1,1,6.92-5.54C275.25,78.1,284.08,96.21,284.08,96.21Z"/><path class="cls-2" d="M321.19,142.55s-32.75-33.81-34.28-35.72a4.43,4.43,0,1,1,6.91-5.54C295.35,103.2,321.19,142.55,321.19,142.55Z"/><path class="cls-2" d="M186.7,83.3s43.14,18.84,45.28,20a4.43,4.43,0,1,1-4.3,7.75C225.54,109.89,186.7,83.3,186.7,83.3Z"/><path class="cls-2" d="M262.28,123.78s-19.64-4.5-21.84-5.55a4.43,4.43,0,0,1,3.82-8C246.47,111.29,262.28,123.78,262.28,123.78Z"/><path class="cls-2" d="M315.82,149.42s-44.17-16.25-46.38-17.3a4.43,4.43,0,0,1,3.83-8C275.47,125.18,315.82,149.42,315.82,149.42Z"/><path class="cls-2" d="M215.81,153.69a4.43,4.43,0,0,1,0,8.86C213.38,162.55,0,158.22,0,158.22"/><path class="cls-2" d="M254.61,158.07s-19.65,4.47-22.09,4.48a4.43,4.43,0,1,1,0-8.86C234.94,153.68,254.61,158.07,254.61,158.07Z"/><path class="cls-2" d="M314,158s-46.85,4.52-49.3,4.53a4.43,4.43,0,1,1,0-8.86C267.1,153.61,314,158,314,158Z"/></g></g></svg>