<svg xmlns="http://www.w3.org/2000/svg" viewBox="0 0 628.75 165.28"><defs><clipPath id="clip-path" transform="translate(-125.19)"><path class="cls-1" d="M0 0h862.68v124.42H0z"/></clipPath><clipPath id="clip-path-2" transform="translate(-125.19)"><path class="cls-1" d="M270.85 3.29h57.38v118.33h-57.38z"/></clipPath><clipPath id="clip-path-3" transform="translate(-125.19)"><path class="cls-1" d="M620.9 82.28l-82.48 85.56V-29.91l82.48 79.56"/></clipPath><style>.cls-1,.cls-9{fill:none}.cls-3{fill:#1e1e1e}.cls-6{fill:#fff}.cls-9{stroke-miterlimit:10;stroke:#000;stroke-width:.75px}</style></defs><g id="Capa_2" data-name="Capa 2"><g id="Capa_1-2" data-name="Capa 1"><g clip-path="url(#clip-path)"><path class="cls-3" d="M166.15 116.58a88.22 88.22 0 01-23.12-3q-11-3-17.84-7.57l9-20.41a63.35 63.35 0 0015.07 6.87 55.85 55.85 0 0017 2.71 34.81 34.81 0 009.23-1 10.22 10.22 0 005-2.78 6.25 6.25 0 001.6-4.3 5.72 5.72 0 00-3.06-5.07 30.25 30.25 0 00-8-3.19q-4.94-1.32-10.69-2.5a107.64 107.64 0 01-11.73-3.13 44.75 44.75 0 01-10.84-5.13 24.58 24.58 0 01-7.77-8.3q-3-5.13-3-12.91a27.65 27.65 0 014.72-15.69q4.71-7.08 14.3-11.39t23.88-4.3a82.94 82.94 0 0118.82 2.15A55.55 55.55 0 01205 24.1l-8.3 20.27a59.23 59.23 0 00-13.7-5.69 51.47 51.47 0 00-13.19-1.81 27.72 27.72 0 00-9.16 1.25 10.88 10.88 0 00-5 3.2 6.59 6.59 0 00-1.53 4.16 5.83 5.83 0 003.06 5.21 27.38 27.38 0 007.82 3.05q4.86 1.18 10.76 2.43a119.44 119.44 0 0111.73 3.13 46.51 46.51 0 0110.77 5 24.61 24.61 0 018 8.19q3.06 5.07 3.05 12.7a27.54 27.54 0 01-4.78 15.63q-4.8 7.14-14.38 11.45t-24 4.31zm104.7 0a60.24 60.24 0 01-21.46-3.75 49.72 49.72 0 01-28.46-26.73 49.3 49.3 0 01-4.1-20.21 48.43 48.43 0 014.1-20 50 50 0 0128.39-26.66 63.65 63.65 0 0143.05 0 51.24 51.24 0 0117.08 10.55 49.49 49.49 0 0111.31 16 48.79 48.79 0 014.1 20.13 50.29 50.29 0 01-4 20.35 47.76 47.76 0 01-11.31 16 51.82 51.82 0 01-17.15 10.56 60.1 60.1 0 01-21.55 3.76zm0-22.78a27.14 27.14 0 0010.34-1.94 24 24 0 008.33-5.62 26.86 26.86 0 005.56-8.75 30.88 30.88 0 002-11.46 30.87 30.87 0 00-2-11.45 26.76 26.76 0 00-5.56-8.75 23.87 23.87 0 00-8.33-5.62 28.42 28.42 0 00-20.69 0 24.62 24.62 0 00-8.4 5.62 25.05 25.05 0 00-5.55 8.75 31.71 31.71 0 00-2 11.45 31.73 31.73 0 002 11.46 25.14 25.14 0 005.55 8.75 24.76 24.76 0 008.4 5.62 27.16 27.16 0 0010.35 1.94zm58.64 12.39l8.51-9.68a122.05 122.05 0 0133-26.39l10.33-25.73 7.16 17.86a122.85 122.85 0 0123.8-6L395.1 17.43H368l-39.79 90.15zm49.58-10.58h22.83l7.64 19h28.6l-14.95-33.73a97.63 97.63 0 00-44.12 14.73z" transform="translate(-125.19)"/><path d="M536 114.63l-6.28-6.87-8.53-9.76a120.39 120.39 0 00-88.28-40.69H428A120.35 120.35 0 00339.76 98l-8.56 9.72-6.28 6.87h29.6l4.18-5.21a99.35 99.35 0 0171.12-31.2h1.31a99.38 99.38 0 0171.12 31.2l4.17 5.21z" transform="translate(-125.19)" fill="#f10430"/><path class="cls-3" d="M473.55 62.65V39.09h15.13q8.61 0 12.92 3.82a13.18 13.18 0 014.3 10.35q0 6.81-4.3 10.55t-12.92 3.75H485a122.1 122.1 0 0137.94 29l.5.57-8.94-13a32.84 32.84 0 0013.84-11.63q5.2-7.92 5.2-19.16a34.6 34.6 0 00-5.2-19.09 33.14 33.14 0 00-14.94-12.51q-9.72-4.3-23-4.31h-44.3V56a122.64 122.64 0 0127.45 6.65zm-27.5 19.25v32.73h27.5V90.91a97.87 97.87 0 00-27.5-9.01z" transform="translate(-125.19)"/><g clip-path="url(#clip-path-2)"><path class="cls-6" d="M270.84 116.08a60.14 60.14 0 01-21.27-3.72 49.27 49.27 0 01-28.19-26.46 49 49 0 01-4-20 48.18 48.18 0 014-19.79 49.51 49.51 0 0128.12-26.4 63.1 63.1 0 0142.69 0 50.67 50.67 0 0116.91 10.45A49.14 49.14 0 01320.31 46a48.57 48.57 0 014.05 19.93 50.22 50.22 0 01-4 20.15 47.83 47.83 0 01-11.2 15.87 51.6 51.6 0 01-17 10.45 59.81 59.81 0 01-21.32 3.68zm0-78.32a28 28 0 00-10.53 2 25.39 25.39 0 00-8.57 5.74 25.79 25.79 0 00-5.66 8.92 32.45 32.45 0 00-2 11.63 32.47 32.47 0 002 11.64 25.79 25.79 0 005.66 8.92 25.21 25.21 0 008.57 5.73 29 29 0 0021.07 0 24.4 24.4 0 008.5-5.74 27.19 27.19 0 005.66-8.91 31.44 31.44 0 002-11.64 31.51 31.51 0 00-2-11.64 27.4 27.4 0 00-5.66-8.91 24.63 24.63 0 00-8.5-5.74 28 28 0 00-10.54-2z" transform="translate(-125.19)"/><path class="cls-3" d="M270.85 16.49A59.45 59.45 0 01292 20.17a50.4 50.4 0 0116.75 10.35 48.59 48.59 0 0111.09 15.65 48 48 0 014 19.72 49.78 49.78 0 01-3.94 20 47.09 47.09 0 01-11.09 15.7 50.85 50.85 0 01-16.81 10.3 62.34 62.34 0 01-42.26 0 48.66 48.66 0 01-27.91-26.2 48.45 48.45 0 01-4-19.8 47.65 47.65 0 014-19.58 49 49 0 0127.84-26.14 59.47 59.47 0 0121.17-3.68m0 78.31a28.36 28.36 0 0010.72-2 25.06 25.06 0 008.67-5.86 27.66 27.66 0 005.77-9.08A31.88 31.88 0 00298.09 66 31.79 31.79 0 00296 54.21a27.56 27.56 0 00-5.76-9.07 24.78 24.78 0 00-8.67-5.86 29.48 29.48 0 00-21.45 0 25.7 25.7 0 00-8.73 5.85 26.26 26.26 0 00-5.78 9.09 33 33 0 00-2 11.81 33 33 0 002 11.82 26.26 26.26 0 005.78 9.09 25.89 25.89 0 008.73 5.85 28.37 28.37 0 0010.73 2m0-79.31a60.07 60.07 0 00-21.53 3.75 50 50 0 00-28.39 26.67 48.43 48.43 0 00-4.1 20 49.3 49.3 0 004.1 20.21 49.72 49.72 0 0028.46 26.73 63.45 63.45 0 0043 0 51.82 51.82 0 0017.15-10.56 47.76 47.76 0 0011.31-16 50.29 50.29 0 004-20.35 48.79 48.79 0 00-4.1-20.13 49.49 49.49 0 00-11.31-16 51.24 51.24 0 00-17.08-10.55 60.1 60.1 0 00-21.52-3.75zm0 78.31a27.16 27.16 0 01-10.35-1.94 24.76 24.76 0 01-8.4-5.62 25.14 25.14 0 01-5.55-8.75 31.73 31.73 0 01-2-11.46 31.71 31.71 0 012-11.45 25.05 25.05 0 015.55-8.75 24.62 24.62 0 018.4-5.62 28.42 28.42 0 0120.69 0 23.87 23.87 0 018.33 5.62 26.57 26.57 0 015.55 8.75 30.66 30.66 0 012 11.45 30.68 30.68 0 01-2 11.46 26.68 26.68 0 01-5.55 8.75 24 24 0 01-8.33 5.62 27.14 27.14 0 01-10.34 1.94z" transform="translate(-125.19)"/></g><path class="cls-3" d="M596.6 116.58a59.59 59.59 0 01-21.24-3.68 51.11 51.11 0 01-16.94-10.42 47.21 47.21 0 01-11.25-16 50.72 50.72 0 01-4-20.41 50.75 50.75 0 014-20.41 47.41 47.41 0 0111.25-16 50.92 50.92 0 0116.94-10.41 64 64 0 0145.33 1 45.1 45.1 0 0117.71 13.57l-17.5 15.83a34.23 34.23 0 00-10.41-8.47A27 27 0 00598 38.26a29.93 29.93 0 00-11 2 23.47 23.47 0 00-8.54 5.62 26.38 26.38 0 00-5.55 8.82 30.77 30.77 0 00-2 11.38 30.79 30.79 0 002 11.39 26.58 26.58 0 005.55 8.82 23.6 23.6 0 008.54 5.57 29.93 29.93 0 0011 1.94 27.1 27.1 0 0012.5-2.91 33.48 33.48 0 0010.41-8.61l17.5 15.83a45.74 45.74 0 01-17.71 13.75 58.84 58.84 0 01-24.1 4.72zm100.95 0a60.14 60.14 0 01-21.45-3.75 49.77 49.77 0 01-28.47-26.73 49.3 49.3 0 01-4.1-20.21 48.43 48.43 0 014.1-20A50 50 0 01676 19.24a63.62 63.62 0 0143 0 51.14 51.14 0 0117.08 10.55 49.68 49.68 0 0111.32 16 48.78 48.78 0 014.09 20.13 50.46 50.46 0 01-4 20.35 47.93 47.93 0 01-11.32 16 51.82 51.82 0 01-17.15 10.56 60.06 60.06 0 01-21.47 3.75zm0-22.78a27.14 27.14 0 0010.34-1.94 23.92 23.92 0 008.33-5.62 26.7 26.7 0 005.56-8.75 30.88 30.88 0 002-11.46 30.87 30.87 0 00-2-11.45 26.6 26.6 0 00-5.56-8.75 23.78 23.78 0 00-8.33-5.62 28.42 28.42 0 00-20.69 0 24.62 24.62 0 00-8.4 5.62 25.2 25.2 0 00-5.55 8.75 31.71 31.71 0 00-2 11.45 31.73 31.73 0 002 11.46 25.29 25.29 0 005.55 8.75 24.76 24.76 0 008.4 5.62 27.23 27.23 0 0010.35 1.94z" transform="translate(-125.19)"/><path stroke-miterlimit="10" stroke="#fff" stroke-width=".25" fill="none" d="M145.66 0v132.51"/><g clip-path="url(#clip-path-3)"><path class="cls-6" d="M596.6 116.08a59.39 59.39 0 01-21.07-3.65 50.88 50.88 0 01-16.77-10.31 47.17 47.17 0 01-11.13-15.87 50.5 50.5 0 01-4-20.22 50.48 50.48 0 014-20.21A47.07 47.07 0 01558.76 30a50.78 50.78 0 0116.77-10.31 63.47 63.47 0 0145 1 45 45 0 0117.23 13.16L621 48.93a34.86 34.86 0 00-10.23-8.2 27.65 27.65 0 00-12.73-3 30.74 30.74 0 00-11.15 2 24.24 24.24 0 00-8.72 5.74 27.24 27.24 0 00-5.66 9 31.59 31.59 0 00-2.1 11.53 31.51 31.51 0 002.05 11.57 27 27 0 005.66 9 24.14 24.14 0 008.72 5.75 30.66 30.66 0 0011.15 2 27.68 27.68 0 0012.73-3A33.73 33.73 0 00621 83l16.77 15.16a45.61 45.61 0 01-17.23 13.24 58.59 58.59 0 01-23.94 4.68z" transform="translate(-125.19)"/><path class="cls-3" d="M596.6 16.49a58.78 58.78 0 0123.69 4.57A44.38 44.38 0 01637 33.71l-16 14.51a34.89 34.89 0 00-10-7.93 28.1 28.1 0 00-13-3 31.26 31.26 0 00-11.33 2 24.7 24.7 0 00-8.9 5.87 27.47 27.47 0 00-5.77 9.12A31.94 31.94 0 00569.91 66 31.87 31.87 0 00572 77.78a27.61 27.61 0 005.76 9.15 24.46 24.46 0 008.9 5.86 31 31 0 0011.33 2 28.09 28.09 0 0013-3A34 34 0 00621 83.71l16 14.51a45 45 0 01-16.74 12.72 58 58 0 01-23.69 4.64 58.83 58.83 0 01-20.86-3.58 50.08 50.08 0 01-16.61-10.21 46.54 46.54 0 01-11-15.7 50 50 0 01-4-20 50 50 0 014-20 46.58 46.58 0 0111-15.71 50.41 50.41 0 0116.61-10.28 59 59 0 0120.89-3.61m0-1a59.59 59.59 0 00-21.24 3.68 50.92 50.92 0 00-16.94 10.41 47.41 47.41 0 00-11.25 16 50.75 50.75 0 00-4 20.41 50.72 50.72 0 004 20.41 47.21 47.21 0 0011.25 16 51.11 51.11 0 0016.94 10.42 59.59 59.59 0 0021.24 3.68 58.84 58.84 0 0024.09-4.72 45.74 45.74 0 0017.71-13.67l-17.5-15.83a33.48 33.48 0 01-10.41 8.61A27.1 27.1 0 01598 93.8a29.93 29.93 0 01-11-1.94 23.6 23.6 0 01-8.54-5.62 26.58 26.58 0 01-5.55-8.82 30.79 30.79 0 01-2-11.39 30.77 30.77 0 012-11.38 26.38 26.38 0 015.55-8.82 23.47 23.47 0 018.54-5.62 29.93 29.93 0 0111-2 27 27 0 0112.5 2.92 34.23 34.23 0 0110.41 8.47l17.5-15.83a45.1 45.1 0 00-17.71-13.68 59.5 59.5 0 00-24.09-4.65z" transform="translate(-125.19)"/></g><path class="cls-9" d="M454.47 9.95l45.8 44.26m.09 23.42l-41.75 43.22"/></g><path class="cls-3" d="M535 165a10.27 10.27 0 01-5.13-1.27 9.25 9.25 0 01-3.55-3.5 10.75 10.75 0 010-10.21 9.15 9.15 0 013.55-3.46 10.47 10.47 0 015.13-1.25 10.27 10.27 0 014.46.95 7.25 7.25 0 013.13 2.88l-2 1.32a6.15 6.15 0 00-2.46-2.17 7.75 7.75 0 00-6.92.24 6.67 6.67 0 00-2.61 2.63 8.71 8.71 0 000 7.95 6.67 6.67 0 002.61 2.63 7.75 7.75 0 006.92.24 6.19 6.19 0 002.46-2.13l2 1.32a7.52 7.52 0 01-3.13 2.86 10 10 0 01-4.46.97zm20.17 0a9.88 9.88 0 01-5-1.27 9.39 9.39 0 01-3.5-3.52 10.71 10.71 0 010-10.19 9.3 9.3 0 013.5-3.46 10.83 10.83 0 0110.14 0 9.23 9.23 0 013.5 3.46 10.86 10.86 0 010 10.19 9.18 9.18 0 01-3.52 3.5 10.08 10.08 0 01-5.12 1.29zm0-2.32a7.24 7.24 0 003.72-.94 6.73 6.73 0 002.56-2.65 8.83 8.83 0 000-7.93 6.75 6.75 0 00-2.56-2.63 7.67 7.67 0 00-7.36 0 6.87 6.87 0 00-2.58 2.63 8.75 8.75 0 000 7.93 6.87 6.87 0 002.56 2.65 7.07 7.07 0 003.66.97zm15.2 2.17v-19.33h2.51v5.3l-.41-1a7.09 7.09 0 012.95-3.3 9.36 9.36 0 014.82-1.19 9.08 9.08 0 014.14.9 6.49 6.49 0 012.8 2.74 9.63 9.63 0 011 4.64v11.23h-2.61v-11a6.34 6.34 0 00-1.53-4.62 5.74 5.74 0 00-4.29-1.57 7.46 7.46 0 00-3.59.83 5.65 5.65 0 00-2.35 2.39 7.9 7.9 0 00-.83 3.78v10.16zm30.08.15a14.91 14.91 0 01-4.53-.68 9.8 9.8 0 01-3.35-1.71l1.18-2.06a10.84 10.84 0 003 1.52 11.65 11.65 0 003.87.65 6.94 6.94 0 004-.87 2.66 2.66 0 001.22-2.3 2.13 2.13 0 00-.68-1.67 4.46 4.46 0 00-1.79-.92 21.72 21.72 0 00-2.46-.54c-.91-.14-1.81-.31-2.71-.51a10.05 10.05 0 01-2.44-.87 4.75 4.75 0 01-1.79-1.56 4.65 4.65 0 01-.68-2.65 4.75 4.75 0 01.88-2.83 5.76 5.76 0 012.6-2 10.76 10.76 0 014.18-.72 14.63 14.63 0 013.75.49 10.56 10.56 0 013.09 1.31l-1.14 2.1a8.86 8.86 0 00-2.76-1.27 11.42 11.42 0 00-2.94-.39 6.48 6.48 0 00-3.85.91 2.74 2.74 0 00-1.24 2.3 2.23 2.23 0 00.69 1.73 4.67 4.67 0 001.8 1 19.17 19.17 0 002.47.57c.89.15 1.79.33 2.68.54a12 12 0 012.47.84 4.51 4.51 0 011.8 1.51 4.33 4.33 0 01.68 2.56 4.75 4.75 0 01-.93 2.93 6 6 0 01-2.73 1.91 12.24 12.24 0 01-4.34.68zm9.75-17.31v-2.17h12v2.17zm9.13 17.31a5.12 5.12 0 01-5.67-5.63v-18.12h2.61v18a3.64 3.64 0 00.87 2.61 3.22 3.22 0 002.48.92 4.25 4.25 0 002.88-1l.92 1.88a5 5 0 01-1.86 1 7.67 7.67 0 01-2.23.34zm8.83-.15v-19.33h2.51v5.27l-.26-.93a6.32 6.32 0 012.72-3.36 9 9 0 014.75-1.16v2.54h-.59a6.19 6.19 0 00-4.78 1.86 7.43 7.43 0 00-1.73 5.28v9.87zm22.75.15a9.57 9.57 0 01-4.31-.92 6.54 6.54 0 01-2.85-2.76 9.52 9.52 0 01-1-4.6v-11.2h2.61v10.93a6.4 6.4 0 001.53 4.66 5.74 5.74 0 004.29 1.56 7.11 7.11 0 003.51-.82 5.48 5.48 0 002.28-2.41 8.39 8.39 0 00.8-3.8v-10.12h2.61v19.33h-2.5v-5.3l.4.95a7 7 0 01-2.85 3.33 8.37 8.37 0 01-4.52 1.17zm24.77 0a10.27 10.27 0 01-5.13-1.27 9.19 9.19 0 01-3.55-3.5 10.75 10.75 0 010-10.21 9.09 9.09 0 013.55-3.46 10.47 10.47 0 015.13-1.25 10.27 10.27 0 014.46.95 7.23 7.23 0 013.12 2.88l-2 1.32a6.15 6.15 0 00-2.46-2.17 7.75 7.75 0 00-6.92.24 6.76 6.76 0 00-2.62 2.63 8.79 8.79 0 000 7.95 6.76 6.76 0 002.62 2.63 7.75 7.75 0 006.92.24 6.19 6.19 0 002.46-2.13l2 1.32a7.49 7.49 0 01-3.12 2.86 10 10 0 01-4.46.97zm9.87-17.31v-2.17h12v2.17zm9.13 17.31a5.12 5.12 0 01-5.68-5.6v-18.15h2.61v18a3.64 3.64 0 00.87 2.61 3.2 3.2 0 002.48.92 4.23 4.23 0 002.87-1l.92 1.88a4.82 4.82 0 01-1.86 1 7.6 7.6 0 01-2.21.34zm15.97 0a9.88 9.88 0 01-5-1.27 9.32 9.32 0 01-3.5-3.52 10.71 10.71 0 010-10.19 9.23 9.23 0 013.5-3.46 10.83 10.83 0 0110.14 0 9.3 9.3 0 013.5 3.46 10.93 10.93 0 010 10.19 9.18 9.18 0 01-3.52 3.5 10.11 10.11 0 01-5.12 1.29zm0-2.32a7.24 7.24 0 003.72-.94 6.73 6.73 0 002.56-2.65 8.92 8.92 0 000-7.93 6.75 6.75 0 00-2.56-2.63 7.67 7.67 0 00-7.36 0 6.87 6.87 0 00-2.58 2.63 8.67 8.67 0 000 7.93 6.87 6.87 0 002.56 2.65 7 7 0 003.66.97zm15.2 2.17v-19.33h2.5v5.27l-.25-.93a6.32 6.32 0 012.72-3.36 9 9 0 014.75-1.16v2.54h-.59a6.23 6.23 0 00-4.79 1.86 7.48 7.48 0 00-1.72 5.28v9.87zm18.92.15a9.12 9.12 0 01-3.77-.72 5.56 5.56 0 01-2.45-2 5.16 5.16 0 01-.85-2.92 5.31 5.31 0 01.72-2.74 5 5 0 012.36-2 10.7 10.7 0 014.4-.76h6.66v2h-6.59c-1.87 0-3.16.34-3.88 1a3.36 3.36 0 00.2 5.12 5.8 5.8 0 003.61 1 7 7 0 003.81-1 5.85 5.85 0 002.33-2.93l.59 1.8a6.1 6.1 0 01-2.56 3.06 8.48 8.48 0 01-4.58 1.09zm6.66-.18v-4.27l-.11-.7v-7.14a5 5 0 00-1.38-3.8 5.73 5.73 0 00-4.1-1.32 10.16 10.16 0 00-3.57.63 9 9 0 00-2.87 1.65l-1.18-2a10.45 10.45 0 013.53-1.93 14 14 0 014.35-.68 8.29 8.29 0 015.79 1.86q2.05 1.86 2.05 5.65v12z" transform="translate(-125.19)"/><path class="cls-3" d="M.69 157.02H383.1v.75H.69z"/><path class="cls-9" d="M145.66 0v165.28"/></g></g></svg>