<svg xmlns="http://www.w3.org/2000/svg" xmlns:xlink="http://www.w3.org/1999/xlink" viewBox="0 0 628.75 165.28"><defs><style>.cls-1,.cls-7,.cls-9{fill:none;}.cls-2{clip-path:url(#clip-path);}.cls-3{fill:#1e1e1e;}.cls-4{fill:#f10430;}.cls-5{clip-path:url(#clip-path-2);}.cls-6{fill:#fff;}.cls-7{stroke:#fff;stroke-width:0.25px;}.cls-7,.cls-9{stroke-miterlimit:10;}.cls-8{clip-path:url(#clip-path-3);}.cls-9{stroke:#000;stroke-width:0.75px;}</style><clipPath id="clip-path" transform="translate(-125.19)"><rect class="cls-1" width="862.68" height="124.42"/></clipPath><clipPath id="clip-path-2" transform="translate(-125.19)"><rect class="cls-1" x="270.85" y="3.29" width="57.38" height="118.33"/></clipPath><clipPath id="clip-path-3" transform="translate(-125.19)"><polyline class="cls-1" points="620.9 82.28 538.42 167.84 538.42 -29.91 620.9 49.65"/></clipPath></defs><g id="Capa_2" data-name="Capa 2"><g id="Capa_1-2" data-name="Capa 1"><g class="cls-2"><path class="cls-3" d="M166.15,116.58a88.22,88.22,0,0,1-23.12-3q-11-3-17.84-7.57l9-20.41a63.35,63.35,0,0,0,15.07,6.87,55.85,55.85,0,0,0,17,2.71,34.81,34.81,0,0,0,9.23-1,10.22,10.22,0,0,0,5-2.78,6.25,6.25,0,0,0,1.6-4.3,5.72,5.72,0,0,0-3.06-5.07,30.25,30.25,0,0,0-8-3.19q-4.94-1.32-10.69-2.5a107.64,107.64,0,0,1-11.73-3.13,44.75,44.75,0,0,1-10.84-5.13A24.58,24.58,0,0,1,130,59.78q-3-5.13-3-12.91a27.65,27.65,0,0,1,4.72-15.69q4.71-7.08,14.3-11.39t23.88-4.3a82.94,82.94,0,0,1,18.82,2.15A55.55,55.55,0,0,1,205,24.1L196.7,44.37A59.23,59.23,0,0,0,183,38.68a51.47,51.47,0,0,0-13.19-1.81,27.72,27.72,0,0,0-9.16,1.25,10.88,10.88,0,0,0-5,3.2,6.59,6.59,0,0,0-1.53,4.16,5.83,5.83,0,0,0,3.06,5.21A27.38,27.38,0,0,0,165,53.74q4.86,1.18,10.76,2.43a119.44,119.44,0,0,1,11.73,3.13,46.51,46.51,0,0,1,10.77,5,24.61,24.61,0,0,1,8,8.19q3.06,5.07,3.05,12.7a27.54,27.54,0,0,1-4.78,15.63q-4.8,7.14-14.38,11.45T166.15,116.58Z" transform="translate(-125.19)"/><path class="cls-3" d="M270.85,116.58a60.24,60.24,0,0,1-21.46-3.75A49.72,49.72,0,0,1,220.93,86.1a49.3,49.3,0,0,1-4.1-20.21,48.43,48.43,0,0,1,4.1-20,50,50,0,0,1,28.39-26.66,63.65,63.65,0,0,1,43.05,0,51.24,51.24,0,0,1,17.08,10.55,49.49,49.49,0,0,1,11.31,16,48.79,48.79,0,0,1,4.1,20.13,50.29,50.29,0,0,1-4,20.35,47.76,47.76,0,0,1-11.31,16,51.82,51.82,0,0,1-17.15,10.56A60.1,60.1,0,0,1,270.85,116.58Zm0-22.78a27.14,27.14,0,0,0,10.34-1.94,24,24,0,0,0,8.33-5.62,26.86,26.86,0,0,0,5.56-8.75,30.88,30.88,0,0,0,2-11.46,30.87,30.87,0,0,0-2-11.45,26.76,26.76,0,0,0-5.56-8.75,23.87,23.87,0,0,0-8.33-5.62,28.42,28.42,0,0,0-20.69,0,24.62,24.62,0,0,0-8.4,5.62,25.05,25.05,0,0,0-5.55,8.75,31.71,31.71,0,0,0-2,11.45,31.73,31.73,0,0,0,2,11.46,25.14,25.14,0,0,0,5.55,8.75,24.76,24.76,0,0,0,8.4,5.62A27.16,27.16,0,0,0,270.85,93.8Z" transform="translate(-125.19)"/><path class="cls-3" d="M329.49,106.19,338,96.51a122.05,122.05,0,0,1,33-26.39l10.33-25.73,7.16,17.86a122.85,122.85,0,0,1,23.8-6L395.1,17.43H368l-39.79,90.15Z" transform="translate(-125.19)"/><path class="cls-3" d="M379.07,95.61H401.9l7.64,19h28.6L423.19,80.88A97.63,97.63,0,0,0,379.07,95.61Z" transform="translate(-125.19)"/><path class="cls-4" d="M536,114.63l-6.28-6.87L521.19,98a120.39,120.39,0,0,0-88.28-40.69H428A120.35,120.35,0,0,0,339.76,98l-8.56,9.72-6.28,6.87h29.6l4.18-5.21a99.35,99.35,0,0,1,71.12-31.2h1.31a99.38,99.38,0,0,1,71.12,31.2l4.17,5.21Z" transform="translate(-125.19)"/><path class="cls-3" d="M473.55,62.65V39.09h15.13q8.61,0,12.92,3.82a13.18,13.18,0,0,1,4.3,10.35q0,6.81-4.3,10.55t-12.92,3.75H485a122.1,122.1,0,0,1,37.94,29l.5.57-8.94-13a32.84,32.84,0,0,0,13.84-11.63q5.2-7.92,5.2-19.16a34.6,34.6,0,0,0-5.2-19.09A33.14,33.14,0,0,0,513.4,21.74q-9.72-4.3-23-4.31h-44.3V56A122.64,122.64,0,0,1,473.55,62.65Z" transform="translate(-125.19)"/><path class="cls-3" d="M446.05,81.9v32.73h27.5V90.91A97.87,97.87,0,0,0,446.05,81.9Z" transform="translate(-125.19)"/><g class="cls-5"><path class="cls-6" d="M270.84,116.08a60.14,60.14,0,0,1-21.27-3.72A49.27,49.27,0,0,1,221.38,85.9a49,49,0,0,1-4-20,48.18,48.18,0,0,1,4-19.79A49.51,49.51,0,0,1,249.5,19.71a63.1,63.1,0,0,1,42.69,0A50.67,50.67,0,0,1,309.1,30.16,49.14,49.14,0,0,1,320.31,46a48.57,48.57,0,0,1,4.05,19.93,50.22,50.22,0,0,1-4,20.15,47.83,47.83,0,0,1-11.2,15.87,51.6,51.6,0,0,1-17,10.45A59.81,59.81,0,0,1,270.84,116.08Zm0-78.32a28,28,0,0,0-10.53,2,25.39,25.39,0,0,0-8.57,5.74,25.79,25.79,0,0,0-5.66,8.92,32.45,32.45,0,0,0-2,11.63,32.47,32.47,0,0,0,2,11.64,25.79,25.79,0,0,0,5.66,8.92,25.21,25.21,0,0,0,8.57,5.73,29,29,0,0,0,21.07,0,24.4,24.4,0,0,0,8.5-5.74,27.19,27.19,0,0,0,5.66-8.91,31.44,31.44,0,0,0,2-11.64,31.51,31.51,0,0,0-2-11.64,27.4,27.4,0,0,0-5.66-8.91,24.63,24.63,0,0,0-8.5-5.74A28,28,0,0,0,270.84,37.76Z" transform="translate(-125.19)"/><path class="cls-3" d="M270.85,16.49A59.45,59.45,0,0,1,292,20.17a50.4,50.4,0,0,1,16.75,10.35,48.59,48.59,0,0,1,11.09,15.65,48,48,0,0,1,4,19.72,49.78,49.78,0,0,1-3.94,20,47.09,47.09,0,0,1-11.09,15.7A50.85,50.85,0,0,1,292,111.89a62.34,62.34,0,0,1-42.26,0,48.66,48.66,0,0,1-27.91-26.2,48.45,48.45,0,0,1-4-19.8,47.65,47.65,0,0,1,4-19.58,49,49,0,0,1,27.84-26.14,59.47,59.47,0,0,1,21.17-3.68m0,78.31a28.36,28.36,0,0,0,10.72-2,25.06,25.06,0,0,0,8.67-5.86A27.66,27.66,0,0,0,296,77.86,31.88,31.88,0,0,0,298.09,66,31.79,31.79,0,0,0,296,54.21a27.56,27.56,0,0,0-5.76-9.07,24.78,24.78,0,0,0-8.67-5.86,29.48,29.48,0,0,0-21.45,0,25.7,25.7,0,0,0-8.73,5.85,26.26,26.26,0,0,0-5.78,9.09,33,33,0,0,0-2,11.81,33,33,0,0,0,2,11.82,26.26,26.26,0,0,0,5.78,9.09,25.89,25.89,0,0,0,8.73,5.85,28.37,28.37,0,0,0,10.73,2m0-79.31a60.07,60.07,0,0,0-21.53,3.75A50,50,0,0,0,220.93,45.9a48.43,48.43,0,0,0-4.1,20,49.3,49.3,0,0,0,4.1,20.21,49.72,49.72,0,0,0,28.46,26.73,63.45,63.45,0,0,0,43,0,51.82,51.82,0,0,0,17.15-10.56,47.76,47.76,0,0,0,11.31-16,50.29,50.29,0,0,0,4-20.35,48.79,48.79,0,0,0-4.1-20.13,49.49,49.49,0,0,0-11.31-16,51.24,51.24,0,0,0-17.08-10.55,60.1,60.1,0,0,0-21.52-3.75Zm0,78.31a27.16,27.16,0,0,1-10.35-1.94,24.76,24.76,0,0,1-8.4-5.62,25.14,25.14,0,0,1-5.55-8.75,31.73,31.73,0,0,1-2-11.46,31.71,31.71,0,0,1,2-11.45,25.05,25.05,0,0,1,5.55-8.75,24.62,24.62,0,0,1,8.4-5.62,28.42,28.42,0,0,1,20.69,0,23.87,23.87,0,0,1,8.33,5.62,26.57,26.57,0,0,1,5.55,8.75,30.66,30.66,0,0,1,2,11.45,30.68,30.68,0,0,1-2,11.46,26.68,26.68,0,0,1-5.55,8.75,24,24,0,0,1-8.33,5.62,27.14,27.14,0,0,1-10.34,1.94Z" transform="translate(-125.19)"/></g><path class="cls-3" d="M596.6,116.58a59.59,59.59,0,0,1-21.24-3.68,51.11,51.11,0,0,1-16.94-10.42,47.21,47.21,0,0,1-11.25-16,50.72,50.72,0,0,1-4-20.41,50.75,50.75,0,0,1,4-20.41,47.41,47.41,0,0,1,11.25-16,50.92,50.92,0,0,1,16.94-10.41,64,64,0,0,1,45.33,1A45.1,45.1,0,0,1,638.4,33.82L620.9,49.65a34.23,34.23,0,0,0-10.41-8.47A27,27,0,0,0,598,38.26a29.93,29.93,0,0,0-11,2,23.47,23.47,0,0,0-8.54,5.62,26.38,26.38,0,0,0-5.55,8.82,30.77,30.77,0,0,0-2,11.38,30.79,30.79,0,0,0,2,11.39,26.58,26.58,0,0,0,5.55,8.82A23.6,23.6,0,0,0,587,91.86a29.93,29.93,0,0,0,11,1.94,27.1,27.1,0,0,0,12.5-2.91,33.48,33.48,0,0,0,10.41-8.61l17.5,15.83a45.74,45.74,0,0,1-17.71,13.75A58.84,58.84,0,0,1,596.6,116.58Z" transform="translate(-125.19)"/><path class="cls-3" d="M697.55,116.58a60.14,60.14,0,0,1-21.45-3.75A49.77,49.77,0,0,1,647.63,86.1a49.3,49.3,0,0,1-4.1-20.21,48.43,48.43,0,0,1,4.1-20A50,50,0,0,1,676,19.24a63.62,63.62,0,0,1,43,0,51.14,51.14,0,0,1,17.08,10.55,49.68,49.68,0,0,1,11.32,16,48.78,48.78,0,0,1,4.09,20.13,50.46,50.46,0,0,1-4,20.35,47.93,47.93,0,0,1-11.32,16,51.82,51.82,0,0,1-17.15,10.56A60.06,60.06,0,0,1,697.55,116.58Zm0-22.78a27.14,27.14,0,0,0,10.34-1.94,23.92,23.92,0,0,0,8.33-5.62,26.7,26.7,0,0,0,5.56-8.75,30.88,30.88,0,0,0,2-11.46,30.87,30.87,0,0,0-2-11.45,26.6,26.6,0,0,0-5.56-8.75,23.78,23.78,0,0,0-8.33-5.62,28.42,28.42,0,0,0-20.69,0,24.62,24.62,0,0,0-8.4,5.62,25.2,25.2,0,0,0-5.55,8.75,31.71,31.71,0,0,0-2,11.45,31.73,31.73,0,0,0,2,11.46,25.29,25.29,0,0,0,5.55,8.75,24.76,24.76,0,0,0,8.4,5.62A27.23,27.23,0,0,0,697.55,93.8Z" transform="translate(-125.19)"/><line class="cls-7" x1="145.66" x2="145.66" y2="132.51"/><g class="cls-8"><path class="cls-6" d="M596.6,116.08a59.39,59.39,0,0,1-21.07-3.65,50.88,50.88,0,0,1-16.77-10.31,47.17,47.17,0,0,1-11.13-15.87,50.5,50.5,0,0,1-4-20.22,50.48,50.48,0,0,1,4-20.21A47.07,47.07,0,0,1,558.76,30a50.78,50.78,0,0,1,16.77-10.31,63.47,63.47,0,0,1,45,1,45,45,0,0,1,17.23,13.16L621,48.93a34.86,34.86,0,0,0-10.23-8.2,27.65,27.65,0,0,0-12.73-3,30.74,30.74,0,0,0-11.15,2,24.24,24.24,0,0,0-8.72,5.74,27.24,27.24,0,0,0-5.66,9A31.59,31.59,0,0,0,570.41,66a31.51,31.51,0,0,0,2.05,11.57,27,27,0,0,0,5.66,9,24.14,24.14,0,0,0,8.72,5.75,30.66,30.66,0,0,0,11.15,2,27.68,27.68,0,0,0,12.73-3A33.73,33.73,0,0,0,621,83l16.77,15.16a45.61,45.61,0,0,1-17.23,13.24A58.59,58.59,0,0,1,596.6,116.08Z" transform="translate(-125.19)"/><path class="cls-3" d="M596.6,16.49a58.78,58.78,0,0,1,23.69,4.57A44.38,44.38,0,0,1,637,33.71L621,48.22a34.89,34.89,0,0,0-10-7.93,28.1,28.1,0,0,0-13-3,31.26,31.26,0,0,0-11.33,2,24.7,24.7,0,0,0-8.9,5.87A27.47,27.47,0,0,0,572,54.28,31.94,31.94,0,0,0,569.91,66,31.87,31.87,0,0,0,572,77.78a27.61,27.61,0,0,0,5.76,9.15,24.46,24.46,0,0,0,8.9,5.86,31,31,0,0,0,11.33,2,28.09,28.09,0,0,0,13-3A34,34,0,0,0,621,83.71l16,14.51a45,45,0,0,1-16.74,12.72,58,58,0,0,1-23.69,4.64A58.83,58.83,0,0,1,575.71,112a50.08,50.08,0,0,1-16.61-10.21,46.54,46.54,0,0,1-11-15.7,50,50,0,0,1-4-20,50,50,0,0,1,4-20,46.58,46.58,0,0,1,11-15.71A50.41,50.41,0,0,1,575.71,20.1a59,59,0,0,1,20.89-3.61m0-1a59.59,59.59,0,0,0-21.24,3.68,50.92,50.92,0,0,0-16.94,10.41,47.41,47.41,0,0,0-11.25,16,50.75,50.75,0,0,0-4,20.41,50.72,50.72,0,0,0,4,20.41,47.21,47.21,0,0,0,11.25,16,51.11,51.11,0,0,0,16.94,10.42,59.59,59.59,0,0,0,21.24,3.68,58.84,58.84,0,0,0,24.09-4.72A45.74,45.74,0,0,0,638.4,98.11L620.9,82.28a33.48,33.48,0,0,1-10.41,8.61A27.1,27.1,0,0,1,598,93.8a29.93,29.93,0,0,1-11-1.94,23.6,23.6,0,0,1-8.54-5.62,26.58,26.58,0,0,1-5.55-8.82,30.79,30.79,0,0,1-2-11.39,30.77,30.77,0,0,1,2-11.38,26.38,26.38,0,0,1,5.55-8.82A23.47,23.47,0,0,1,587,40.21a29.93,29.93,0,0,1,11-2,27,27,0,0,1,12.5,2.92,34.23,34.23,0,0,1,10.41,8.47l17.5-15.83a45.1,45.1,0,0,0-17.71-13.68,59.5,59.5,0,0,0-24.09-4.65Z" transform="translate(-125.19)"/></g><line class="cls-9" x1="454.47" y1="9.95" x2="500.27" y2="54.21"/><line class="cls-9" x1="500.36" y1="77.63" x2="458.61" y2="120.85"/></g><path class="cls-3" d="M535,165a10.27,10.27,0,0,1-5.13-1.27,9.25,9.25,0,0,1-3.55-3.5,10.75,10.75,0,0,1,0-10.21,9.15,9.15,0,0,1,3.55-3.46,10.47,10.47,0,0,1,5.13-1.25,10.27,10.27,0,0,1,4.46.95,7.25,7.25,0,0,1,3.13,2.88l-2,1.32a6.15,6.15,0,0,0-2.46-2.17,7.75,7.75,0,0,0-6.92.24,6.67,6.67,0,0,0-2.61,2.63,8.71,8.71,0,0,0,0,7.95,6.67,6.67,0,0,0,2.61,2.63,7.75,7.75,0,0,0,6.92.24,6.19,6.19,0,0,0,2.46-2.13l2,1.32a7.52,7.52,0,0,1-3.13,2.86A10,10,0,0,1,535,165Z" transform="translate(-125.19)"/><path class="cls-3" d="M555.17,165a9.88,9.88,0,0,1-5-1.27,9.39,9.39,0,0,1-3.5-3.52,10.71,10.71,0,0,1,0-10.19,9.3,9.3,0,0,1,3.5-3.46,10.83,10.83,0,0,1,10.14,0,9.23,9.23,0,0,1,3.5,3.46,10.86,10.86,0,0,1,0,10.19,9.18,9.18,0,0,1-3.52,3.5A10.08,10.08,0,0,1,555.17,165Zm0-2.32a7.24,7.24,0,0,0,3.72-.94,6.73,6.73,0,0,0,2.56-2.65,8.83,8.83,0,0,0,0-7.93,6.75,6.75,0,0,0-2.56-2.63,7.67,7.67,0,0,0-7.36,0,6.87,6.87,0,0,0-2.58,2.63,8.75,8.75,0,0,0,0,7.93,6.87,6.87,0,0,0,2.56,2.65A7.07,7.07,0,0,0,555.17,162.71Z" transform="translate(-125.19)"/><path class="cls-3" d="M570.37,164.85V145.52h2.51v5.3l-.41-1a7.09,7.09,0,0,1,2.95-3.3,9.36,9.36,0,0,1,4.82-1.19,9.08,9.08,0,0,1,4.14.9,6.49,6.49,0,0,1,2.8,2.74,9.63,9.63,0,0,1,1,4.64v11.23h-2.61v-11a6.34,6.34,0,0,0-1.53-4.62,5.74,5.74,0,0,0-4.29-1.57,7.46,7.46,0,0,0-3.59.83,5.65,5.65,0,0,0-2.35,2.39,7.9,7.9,0,0,0-.83,3.78v10.16Z" transform="translate(-125.19)"/><path class="cls-3" d="M600.45,165a14.91,14.91,0,0,1-4.53-.68,9.8,9.8,0,0,1-3.35-1.71l1.18-2.06a10.84,10.84,0,0,0,3,1.52,11.65,11.65,0,0,0,3.87.65,6.94,6.94,0,0,0,4-.87,2.66,2.66,0,0,0,1.22-2.3,2.13,2.13,0,0,0-.68-1.67,4.46,4.46,0,0,0-1.79-.92,21.72,21.72,0,0,0-2.46-.54c-.91-.14-1.81-.31-2.71-.51a10.05,10.05,0,0,1-2.44-.87,4.75,4.75,0,0,1-1.79-1.56,4.65,4.65,0,0,1-.68-2.65,4.75,4.75,0,0,1,.88-2.83,5.76,5.76,0,0,1,2.6-2,10.76,10.76,0,0,1,4.18-.72,14.63,14.63,0,0,1,3.75.49,10.56,10.56,0,0,1,3.09,1.31l-1.14,2.1a8.86,8.86,0,0,0-2.76-1.27,11.42,11.42,0,0,0-2.94-.39,6.48,6.48,0,0,0-3.85.91,2.74,2.74,0,0,0-1.24,2.3,2.23,2.23,0,0,0,.69,1.73,4.67,4.67,0,0,0,1.8,1,19.17,19.17,0,0,0,2.47.57c.89.15,1.79.33,2.68.54a12,12,0,0,1,2.47.84,4.51,4.51,0,0,1,1.8,1.51,4.33,4.33,0,0,1,.68,2.56,4.75,4.75,0,0,1-.93,2.93,6,6,0,0,1-2.73,1.91A12.24,12.24,0,0,1,600.45,165Z" transform="translate(-125.19)"/><path class="cls-3" d="M610.2,147.69v-2.17h12v2.17ZM619.33,165a5.12,5.12,0,0,1-5.67-5.63V141.25h2.61v18a3.64,3.64,0,0,0,.87,2.61,3.22,3.22,0,0,0,2.48.92,4.25,4.25,0,0,0,2.88-1l.92,1.88a5,5,0,0,1-1.86,1A7.67,7.67,0,0,1,619.33,165Z" transform="translate(-125.19)"/><path class="cls-3" d="M628.16,164.85V145.52h2.51v5.27l-.26-.93a6.32,6.32,0,0,1,2.72-3.36,9,9,0,0,1,4.75-1.16v2.54l-.29,0-.3,0a6.19,6.19,0,0,0-4.78,1.86,7.43,7.43,0,0,0-1.73,5.28v9.87Z" transform="translate(-125.19)"/><path class="cls-3" d="M650.91,165a9.57,9.57,0,0,1-4.31-.92,6.54,6.54,0,0,1-2.85-2.76,9.52,9.52,0,0,1-1-4.6V145.52h2.61v10.93a6.4,6.4,0,0,0,1.53,4.66,5.74,5.74,0,0,0,4.29,1.56,7.11,7.11,0,0,0,3.51-.82,5.48,5.48,0,0,0,2.28-2.41,8.39,8.39,0,0,0,.8-3.8V145.52h2.61v19.33h-2.5v-5.3l.4.95a7,7,0,0,1-2.85,3.33A8.37,8.37,0,0,1,650.91,165Z" transform="translate(-125.19)"/><path class="cls-3" d="M675.68,165a10.27,10.27,0,0,1-5.13-1.27,9.19,9.19,0,0,1-3.55-3.5,10.75,10.75,0,0,1,0-10.21,9.09,9.09,0,0,1,3.55-3.46,10.47,10.47,0,0,1,5.13-1.25,10.27,10.27,0,0,1,4.46.95,7.23,7.23,0,0,1,3.12,2.88l-2,1.32a6.15,6.15,0,0,0-2.46-2.17,7.75,7.75,0,0,0-6.92.24,6.76,6.76,0,0,0-2.62,2.63,8.79,8.79,0,0,0,0,7.95,6.76,6.76,0,0,0,2.62,2.63,7.75,7.75,0,0,0,6.92.24,6.19,6.19,0,0,0,2.46-2.13l2,1.32a7.49,7.49,0,0,1-3.12,2.86A10,10,0,0,1,675.68,165Z" transform="translate(-125.19)"/><path class="cls-3" d="M685.55,147.69v-2.17h12v2.17ZM694.68,165A5.12,5.12,0,0,1,689,159.4V141.25h2.61v18a3.64,3.64,0,0,0,.87,2.61,3.2,3.2,0,0,0,2.48.92,4.23,4.23,0,0,0,2.87-1l.92,1.88a4.82,4.82,0,0,1-1.86,1A7.6,7.6,0,0,1,694.68,165Z" transform="translate(-125.19)"/><path class="cls-3" d="M710.65,165a9.88,9.88,0,0,1-5-1.27,9.32,9.32,0,0,1-3.5-3.52,10.71,10.71,0,0,1,0-10.19,9.23,9.23,0,0,1,3.5-3.46,10.83,10.83,0,0,1,10.14,0,9.3,9.3,0,0,1,3.5,3.46,10.93,10.93,0,0,1,0,10.19,9.18,9.18,0,0,1-3.52,3.5A10.11,10.11,0,0,1,710.65,165Zm0-2.32a7.24,7.24,0,0,0,3.72-.94,6.73,6.73,0,0,0,2.56-2.65,8.92,8.92,0,0,0,0-7.93,6.75,6.75,0,0,0-2.56-2.63,7.67,7.67,0,0,0-7.36,0,6.87,6.87,0,0,0-2.58,2.63,8.67,8.67,0,0,0,0,7.93,6.87,6.87,0,0,0,2.56,2.65A7,7,0,0,0,710.65,162.71Z" transform="translate(-125.19)"/><path class="cls-3" d="M725.85,164.85V145.52h2.5v5.27l-.25-.93a6.32,6.32,0,0,1,2.72-3.36,9,9,0,0,1,4.75-1.16v2.54l-.3,0-.29,0a6.23,6.23,0,0,0-4.79,1.86,7.48,7.48,0,0,0-1.72,5.28v9.87Z" transform="translate(-125.19)"/><path class="cls-3" d="M744.77,165a9.12,9.12,0,0,1-3.77-.72,5.56,5.56,0,0,1-2.45-2,5.16,5.16,0,0,1-.85-2.92,5.31,5.31,0,0,1,.72-2.74,5,5,0,0,1,2.36-2,10.7,10.7,0,0,1,4.4-.76h6.66v2h-6.59c-1.87,0-3.16.34-3.88,1a3.36,3.36,0,0,0,.2,5.12,5.8,5.8,0,0,0,3.61,1,7,7,0,0,0,3.81-1,5.85,5.85,0,0,0,2.33-2.93l.59,1.8a6.1,6.1,0,0,1-2.56,3.06A8.48,8.48,0,0,1,744.77,165Zm6.66-.18v-4.27l-.11-.7v-7.14a5,5,0,0,0-1.38-3.8,5.73,5.73,0,0,0-4.1-1.32,10.16,10.16,0,0,0-3.57.63,9,9,0,0,0-2.87,1.65l-1.18-2a10.45,10.45,0,0,1,3.53-1.93,14,14,0,0,1,4.35-.68,8.29,8.29,0,0,1,5.79,1.86q2.05,1.86,2.05,5.65v12Z" transform="translate(-125.19)"/><rect class="cls-3" x="0.69" y="157.02" width="382.41" height="0.75"/><line class="cls-9" x1="145.66" x2="145.66" y2="165.28"/></g></g></svg>